<svg xmlns="http://www.w3.org/2000/svg" xmlns:xlink="http://www.w3.org/1999/xlink" width="340.455" height="241.012" viewBox="0 0 340.455 241.012">
  <defs>
    <linearGradient id="linear-gradient" x1="0.451" y1="0.276" x2="1.457" y2="4.858" gradientUnits="objectBoundingBox">
      <stop offset="0" stop-color="#010101" stop-opacity="0"/>
      <stop offset="0.95" stop-color="#010101"/>
    </linearGradient>
    <linearGradient id="linear-gradient-2" x1="0.5" y1="0.473" x2="0.458" y2="3.787" xlink:href="#linear-gradient"/>
    <linearGradient id="linear-gradient-3" x1="0.505" y1="-0.205" x2="0.46" y2="6.044" xlink:href="#linear-gradient"/>
    <linearGradient id="linear-gradient-4" x1="0" y1="0.5" x2="1" y2="0.5" xlink:href="#linear-gradient"/>
    <linearGradient id="linear-gradient-5" x1="0" y1="0.5" x2="1" y2="0.5" xlink:href="#linear-gradient"/>
    <linearGradient id="linear-gradient-6" x1="0.559" y1="1.463" x2="0.464" y2="-0.137" gradientUnits="objectBoundingBox">
      <stop offset="0" stop-color="#e5c6d6"/>
      <stop offset="0.42" stop-color="#ead4d0"/>
      <stop offset="1" stop-color="#f0e9cb"/>
    </linearGradient>
    <linearGradient id="linear-gradient-7" x1="0.465" y1="0.557" x2="0.048" y2="0.294" xlink:href="#linear-gradient"/>
    <linearGradient id="linear-gradient-8" x1="0.003" y1="0.5" x2="1.003" y2="0.5" xlink:href="#linear-gradient-6"/>
    <linearGradient id="linear-gradient-9" x1="0.486" y1="0.745" x2="0.561" y2="-2.405" xlink:href="#linear-gradient"/>
    <linearGradient id="linear-gradient-10" x1="0" y1="0.5" x2="1" y2="0.5" xlink:href="#linear-gradient-6"/>
    <linearGradient id="linear-gradient-11" x1="0.596" y1="0.723" x2="0.09" y2="0.057" xlink:href="#linear-gradient"/>
    <linearGradient id="linear-gradient-12" x1="0.002" y1="0.499" x2="0.997" y2="0.499" xlink:href="#linear-gradient-6"/>
    <linearGradient id="linear-gradient-13" x1="0.555" y1="0.554" x2="-0.35" y2="-0.255" gradientUnits="objectBoundingBox">
      <stop offset="0" stop-color="#fff" stop-opacity="0"/>
      <stop offset="0.95" stop-color="#fff"/>
    </linearGradient>
    <linearGradient id="linear-gradient-14" x1="1.398" y1="1.195" x2="-6.242" y2="-6.877" xlink:href="#linear-gradient"/>
    <linearGradient id="linear-gradient-15" x1="0.001" y1="0.502" x2="0.998" y2="0.502" xlink:href="#linear-gradient-6"/>
    <linearGradient id="linear-gradient-16" x1="0.418" y1="0.5" x2="1.191" y2="0.501" xlink:href="#linear-gradient"/>
    <linearGradient id="linear-gradient-17" x1="0.001" y1="0.492" x2="1.001" y2="0.492" xlink:href="#linear-gradient"/>
    <linearGradient id="linear-gradient-18" x1="0.127" y1="0.51" x2="3.5" y2="0.45" xlink:href="#linear-gradient"/>
    <linearGradient id="linear-gradient-19" x1="0.732" y1="0.453" x2="1.323" y2="0.333" xlink:href="#linear-gradient"/>
    <linearGradient id="linear-gradient-20" x1="0.503" y1="-0.279" x2="0.444" y2="16.426" xlink:href="#linear-gradient"/>
    <linearGradient id="linear-gradient-21" x1="0.155" y1="0.016" x2="2.629" y2="3.102" xlink:href="#linear-gradient"/>
    <linearGradient id="linear-gradient-22" x1="-0.519" y1="0.371" x2="3.009" y2="0.836" xlink:href="#linear-gradient"/>
  </defs>
  <g id="Almost_there_illustration" data-name="Almost there illustration" transform="translate(0.001 0.03)">
    <path id="Path_256" data-name="Path 256" d="M333.624,183.539a99.349,99.349,0,0,1-7.131,7.868c-7.016,7.029-14.823,13.328-21.791,20.418-11.609,11.792-20.844,25.708-32.271,37.669S246.52,271.7,230.046,273.078c-12.773,1.062-25.3-3.315-37.994-5.216-42.365-6.332-86.529,14.884-127.689,2.9a82.274,82.274,0,0,1-45.416-124.78c8.3-12.408,19.809-22.326,29.206-33.867C69.288,86.084,82.345,49.537,113.98,38.375c9.789-3.457,20.357-3.924,30.742-4.377,24.24-1.042,50.064-1.691,70.793,10.912,15.29,9.343,25.708,24.714,38.238,37.487,14.633,14.884,29.964,23.523,49.089,29.916,16.913,5.663,37.209,14.613,41.9,33.746a28.71,28.71,0,0,1,.616,3.288C346.972,161.49,341.39,173.911,333.624,183.539Z" transform="translate(-5.18 -33.52)" fill="#fff" opacity="0.498" style="isolation: isolate"/>
    <path id="Path_257" data-name="Path 257" d="M175.139,161.8c-17.015-5.372-36.195-8.565-52.195-.677-20.668,10.229-29.348,35.4-47.642,49.448-4.377,3.383-9.37,6.143-12.638,10.595a26.714,26.714,0,0,0-4.391,11.406,44.956,44.956,0,0,0,11.5,37.372,48.507,48.507,0,0,0,36.3,15.033c13.49-.338,26.087-6.035,39.192-9.025,40.653-9.289,82.415,7.807,124.1,8.869,9.877.25,20.776-.832,27.663-7.929,8.071-8.321,7.712-21.852,14.241-31.432,3.606-5.29,9.045-8.984,13.68-13.4s8.734-10.249,8.254-16.636c-.521-6.867-6.292-12.34-12.617-15.087s-13.307-3.444-19.992-5.108c-13.274-3.295-25.255-10.344-37.886-15.56-14.694-5.954-26.872-4.655-41.986-5.277C205.109,173.776,189.833,166.443,175.139,161.8Z" transform="translate(-22.174 -73.273)" fill="#4a00ff" opacity="0.24" style="isolation: isolate"/>
    <rect id="Rectangle_83" data-name="Rectangle 83" width="22.008" height="3.234" rx="1.617" transform="translate(235.613 114.044) rotate(3.16)" fill="#4a00ff"/>
    <rect id="Rectangle_84" data-name="Rectangle 84" width="22.008" height="3.234" rx="1.617" transform="translate(235.613 114.044) rotate(3.16)" fill="url(#linear-gradient)"/>
    <rect id="Rectangle_85" data-name="Rectangle 85" width="22.008" height="3.234" rx="1.617" transform="translate(235.535 110.662) rotate(3.16)" fill="#4a00ff"/>
    <rect id="Rectangle_86" data-name="Rectangle 86" width="22.008" height="3.234" rx="1.617" transform="translate(235.535 110.662) rotate(3.16)" fill="url(#linear-gradient-2)"/>
    <rect id="Rectangle_87" data-name="Rectangle 87" width="22.008" height="3.234" rx="1.617" transform="translate(236.548 107.354) rotate(3.16)" fill="#4a00ff"/>
    <rect id="Rectangle_88" data-name="Rectangle 88" width="22.008" height="3.234" rx="1.617" transform="translate(236.548 107.354) rotate(3.16)" fill="url(#linear-gradient-3)"/>
    <path id="Path_258" data-name="Path 258" d="M347.814,206.541c-12.069-1.15-24.619-1.685-35.944,2.638l5.182,2.456a4.52,4.52,0,0,0,1.847.568,5.122,5.122,0,0,0,1.982-.568c4.242-1.752,8.984-1.766,13.578-1.583,18.9.751,37.7,4.323,56.6,3.484,3.383-.156,6.833-.467,9.891-1.9-4.587-1.4-9.3-3.322-14-4.255-3.538-.677-6.982.548-10.588.764C366.7,208.72,357.34,206.541,347.814,206.541Z" transform="translate(-104.384 -89.233)" fill="url(#linear-gradient-4)"/>
    <path id="Path_259" data-name="Path 259" d="M350.584,207.731c-12.069-1.15-24.619-1.685-35.944,2.638l5.182,2.456a4.52,4.52,0,0,0,1.847.568,5.236,5.236,0,0,0,1.982-.568c4.242-1.759,8.984-1.766,13.578-1.583,18.9.751,37.7,4.323,56.6,3.477,3.383-.149,6.833-.46,9.891-1.9-4.587-1.394-9.3-3.322-14-4.249-3.538-.677-6.982.548-10.588.764C369.493,209.9,360.13,207.731,350.584,207.731Z" transform="translate(-105.28 -89.618)" fill="#4a00ff"/>
    <path id="Path_260" data-name="Path 260" d="M346.188,209.84c-12.069-1.157-24.612-1.685-35.937,2.638l5.175,2.456a4.553,4.553,0,0,0,1.847.568,5.168,5.168,0,0,0,1.982-.568c4.249-1.759,8.991-1.766,13.585-1.583,18.9.751,37.7,4.323,56.6,3.477,3.383-.149,6.833-.46,9.891-1.9-4.594-1.394-9.3-3.322-14.011-4.249-3.531-.677-6.975.548-10.588.758C365.1,212.011,355.74,209.84,346.188,209.84Z" transform="translate(-103.86 -90.299)" fill="#4a00ff"/>
    <path id="Path_261" data-name="Path 261" d="M346.188,209.84c-12.069-1.157-24.612-1.685-35.937,2.638l5.175,2.456a4.553,4.553,0,0,0,1.847.568,5.168,5.168,0,0,0,1.982-.568c4.249-1.759,8.991-1.766,13.585-1.583,18.9.751,37.7,4.323,56.6,3.477,3.383-.149,6.833-.46,9.891-1.9-4.594-1.394-9.3-3.322-14.011-4.249-3.531-.677-6.975.548-10.588.758C365.1,212.011,355.74,209.84,346.188,209.84Z" transform="translate(-103.86 -90.299)" fill="url(#linear-gradient-5)"/>
    <path id="Path_262" data-name="Path 262" d="M348.988,211.029c-12.069-1.157-24.612-1.691-35.937,2.638l5.175,2.49a4.553,4.553,0,0,0,1.847.568,5.169,5.169,0,0,0,1.982-.568c4.249-1.759,8.991-1.773,13.585-1.59,18.9.758,37.7,4.323,56.6,3.484,3.383-.149,6.833-.467,9.891-1.9-4.594-1.427-9.282-3.376-14.018-4.289-3.538-.677-6.975.548-10.588.764C367.9,213.2,358.54,211.029,348.988,211.029Z" transform="translate(-104.766 -90.683)" fill="#4a00ff"/>
    <path id="Path_263" data-name="Path 263" d="M418.769,207.914a44.881,44.881,0,0,1-5.412-3.207,71.55,71.55,0,0,0-31.987-10.825,2.266,2.266,0,0,0-1.258.129c-.792.413-.832,1.542-.562,2.395,1.488,4.648,7.807,5.412,11.217,8.923a1.955,1.955,0,0,1,.677,1.353c-.034.974-1.225,1.407-2.185,1.59-11.731,2.219-23.888,4.424-35.484,1.6-5.081-1.238-9.959-3.43-15.161-3.958a3.329,3.329,0,0,0-1.732.162,2.354,2.354,0,0,0-.981,2.821,5.926,5.926,0,0,0,1.962,2.551c6.089,5.257,14,7.76,21.649,10.148,9.965,3.085,20.1,6.2,30.525,6.332,3.213.041,6.42-.21,9.62-.453l22.962-1.759a4.737,4.737,0,0,0,1.813-.386,4.262,4.262,0,0,0,1.644-1.9,22.812,22.812,0,0,0,2.706-11.393C428.68,208.076,421.766,209.273,418.769,207.914Z" transform="translate(-112.11 -85.389)" fill="url(#linear-gradient-6)"/>
    <path id="Path_264" data-name="Path 264" d="M465.66,206.483a1.049,1.049,0,0,0-.677,0,.934.934,0,0,0-.379.426c-1.542,2.706-1.854,5.886-2.923,8.795-.548,1.5-1.3,2.923-1.813,4.438a29.317,29.317,0,0,0-1.055,4.9,52.78,52.78,0,0,0-.818,7.631,1.117,1.117,0,0,0,.866,1.34,20.6,20.6,0,0,0,8.031,1.353.9.9,0,0,0,.534-.135.927.927,0,0,0,.257-.474q2.03-6.806,3.457-13.788.676-3.511,1.224-7.063c.176-1.184.426-2.408.494-3.606s-.379-1.482-1.482-2.03a32.622,32.622,0,0,0-5.717-1.793Z" transform="translate(-151.647 -89.459)" fill="#fff"/>
    <path id="Path_265" data-name="Path 265" d="M141.6,174.482l-.108-1.9a2.956,2.956,0,0,1,2.632-2.889l4.391-.46a2.923,2.923,0,0,1,3.186,2.354l.338,1.847-1.509.277-.338-1.833a1.394,1.394,0,0,0-1.522-1.123l-4.391.46a1.407,1.407,0,0,0-1.252,1.353l.108,1.827Z" transform="translate(-49.272 -77.422)" fill="#606161"/>
    <path id="Path_266" data-name="Path 266" d="M157.418,202.827c-1.272,4.479-3.383,8.673-4.736,13.145-1.509,5.189-1.854,10.628-2.192,16.02a2.144,2.144,0,0,0,2.855.48,6.157,6.157,0,0,0,2.03-2.415A321.449,321.449,0,0,0,179,180.082l18.747,3.126a1.82,1.82,0,0,1,1.955,2.226l-.3,19.707,4.56.1a1.285,1.285,0,0,0,1.678-1.279L210,177.206c.244-1.482.467-3.092-.271-4.4a6.373,6.373,0,0,0-2.348-2.111,53.8,53.8,0,0,0-29.625-7.942c-2.977.081-6,.413-8.89-.3-4.6-1.15-6.569-4.167-8.118,1.657a57.253,57.253,0,0,0-1.488,13.017C159.055,185.683,159.8,194.478,157.418,202.827Z" transform="translate(-52.183 -74.647)" fill="#606161"/>
    <path id="Path_267" data-name="Path 267" d="M157.418,202.827c-1.272,4.479-3.383,8.673-4.736,13.145-1.509,5.189-1.854,10.628-2.192,16.02a2.144,2.144,0,0,0,2.855.48,6.157,6.157,0,0,0,2.03-2.415A321.449,321.449,0,0,0,179,180.082l18.747,3.126a1.82,1.82,0,0,1,1.955,2.226l-.3,19.707,4.56.1a1.285,1.285,0,0,0,1.678-1.279L210,177.206c.244-1.482.467-3.092-.271-4.4a6.373,6.373,0,0,0-2.348-2.111,53.8,53.8,0,0,0-29.625-7.942c-2.977.081-6,.413-8.89-.3-4.6-1.15-6.569-4.167-8.118,1.657a57.253,57.253,0,0,0-1.488,13.017C159.055,185.683,159.8,194.478,157.418,202.827Z" transform="translate(-52.183 -74.647)" fill="url(#linear-gradient-7)"/>
    <path id="Path_268" data-name="Path 268" d="M227.1,132.545v2.679l-10.567,2.76c-2.084.534-4.31,1.062-6.332.386a10.737,10.737,0,0,1-3.437-2.165,41,41,0,0,1-5.866-5.6c-.325-.386-.636-.792-.94-1.225a20.052,20.052,0,0,1-3.166-6.806c-.2-.839-.737-1.427-.2-2.1.426-.528,1.671-.589,2.287-.528a7.936,7.936,0,0,1,2.984,1.1c4.5,2.51,8.193,6.17,12.117,9.519a4.371,4.371,0,0,0,1.049.717,5.114,5.114,0,0,0,1.732.331l9.871.487a.433.433,0,0,1,.352.122A.392.392,0,0,1,227.1,132.545Z" transform="translate(-67.02 -61.478)" fill="#4a00ff"/>
    <path id="Path_269" data-name="Path 269" d="M186.93,149.274c-1.082,1.739-7.3,1.042-11.65-.142a13.2,13.2,0,0,1-3.944-1.556,4.463,4.463,0,0,1-2.03-2.591,4.662,4.662,0,0,1,.142-1.759c1.042-5.047,2.1-10.094,3.146-15.148h0c.244-1.143.474-2.307.717-3.45a17.236,17.236,0,0,1,1.022-3.538,14.885,14.885,0,0,1,1.84-2.943c.677-.9-.223-2.429.9-2.51,3.268-.25,4.885-.311,6.495.386,2.03.9,5.216,1.6,7.219,2.6.589.284.061.88.467,1.427a4,4,0,0,1,.555,1.536C193.364,128.755,190.773,143,186.93,149.274Z" transform="translate(-58.261 -60.036)" fill="#4a00ff"/>
    <path id="Path_270" data-name="Path 270" d="M180.11,81.92l.48,7.408,3.477-1.82,2.185,1.678-.122-.981-5.541-6.258Z" transform="translate(-58.26 -26.508)" fill="#606161"/>
    <path id="Path_271" data-name="Path 271" d="M187.847,83.84l.372,5.521L186,87.554Z" transform="translate(-60.165 -27.129)" fill="#4a00ff"/>
    <path id="Path_272" data-name="Path 272" d="M186.419,115.082a2.2,2.2,0,0,0,.5,2.192,2.537,2.537,0,0,0,1.1.528c.46.115,1.1,1.543,1.583,1.549.244,0,.507-1.028.717-1.15s.217-.751.352-.995l.913-1.617a1.191,1.191,0,0,0,.217-.873,1.177,1.177,0,0,0-.589-.582l-1.691-.995c-.629-.379-2.571-1.671-2.645-.825a19.615,19.615,0,0,1-.46,2.767Z" transform="translate(-63.771 -58.926)" fill="url(#linear-gradient-8)"/>
    <path id="Path_273" data-name="Path 273" d="M189.32,115.07s-.054,3.173,1.8,3.762a6.089,6.089,0,0,0,1.306-2.212C193.034,115.023,189.32,115.07,189.32,115.07Z" transform="translate(-64.743 -59.908)" fill="url(#linear-gradient-9)"/>
    <path id="Path_274" data-name="Path 274" d="M210.723,62.872c-4,.48-7.909,2.408-11.88,1.745a33.625,33.625,0,0,1-5.663-1.969,21.2,21.2,0,0,0-16.5.995c3.308.886,6.765,2.151,8.849,4.851,2.51,3.2,2.652,7.767,5.1,11.007a12.467,12.467,0,0,0,8.24,4.425,35.951,35.951,0,0,0,9.559-.291,5.835,5.835,0,0,1,3.8.386,8.088,8.088,0,0,1,2.233,2.943c2.118,3.383,7.117,4.973,11.061,4.269.237-5.981,3.031-16.622.521-21.778C223.659,64.523,215.7,62.277,210.723,62.872Z" transform="translate(-60.655 -42.559)" fill="#4a00ff"/>
    <path id="Path_275" data-name="Path 275" d="M486.043,236.509a81.5,81.5,0,0,1-5.859,6.468c-2.233-.521-4.5-.94-6.765-1.258a2.584,2.584,0,0,1-1.461-.541,2.422,2.422,0,0,1-.419-1.894,292.01,292.01,0,0,1,3.944-34.043l12.428,1.779a76.177,76.177,0,0,1,7.773,1.414C496.976,218.392,492.4,228.6,486.043,236.509Z" transform="translate(-156.017 -89.075)" fill="#4a00ff"/>
    <rect id="Rectangle_89" data-name="Rectangle 89" width="60.773" height="16.332" transform="translate(140.807 135.074)" fill="#4a00ff"/>
    <rect id="Rectangle_90" data-name="Rectangle 90" width="60.773" height="16.332" transform="translate(80.034 164.253)" fill="#4a00ff"/>
    <rect id="Rectangle_91" data-name="Rectangle 91" width="60.773" height="16.332" transform="translate(25.045 189.251)" fill="#4a00ff"/>
    <rect id="Rectangle_92" data-name="Rectangle 92" width="60.773" height="16.332" transform="translate(56.024 217.253)" fill="#4a00ff"/>
    <path id="Path_276" data-name="Path 276" d="M196.554,106.821a1.563,1.563,0,0,1,.257.751c0,.419-.392.71-.731.954a6.088,6.088,0,0,0-1.942,1.948c-.325.6-.5,1.353-1.049,1.712-.744.534-1.773.2-2.611-.156-1.049-.44-3.565-2.706-3.619-3.207-.156-1.353.555-2.9,1.042-4.161a6.131,6.131,0,0,1,2.95-3.552,4.012,4.012,0,0,1,3.288.041C196.893,102.457,195.452,104.656,196.554,106.821Z" transform="translate(-63.94 -55.286)" fill="url(#linear-gradient-10)"/>
    <path id="Path_277" data-name="Path 277" d="M192.339,96.545a9.066,9.066,0,0,1,4.736,2.706,1.7,1.7,0,0,1,.467.913,1.448,1.448,0,0,1-.453,1.062,3.714,3.714,0,0,1-3.491.954,5.149,5.149,0,0,0-2.03-.3,2.808,2.808,0,0,0-1.6,1.265,9.4,9.4,0,0,0-1.231,2.422c-.162,0-.271-.176-.277-.338a.974.974,0,0,0-.061-.487.413.413,0,0,0-.562-.081.832.832,0,0,0-.311.528,1.725,1.725,0,0,0,.386,1.468,1.63,1.63,0,0,0-1.4.677c-.047.068-.108.142-.183.122a.19.19,0,0,1-.088-.074,6.468,6.468,0,0,1-.805-5.345,4.573,4.573,0,0,1,.677-1.576,2.361,2.361,0,0,1,.886-.785c.3-.142.832-.108,1.049-.359.345-.392.169-1.353.379-1.833C188.99,96.024,191.148,96.248,192.339,96.545Z" transform="translate(-63.405 -53.845)" fill="#606161"/>
    <path id="Path_278" data-name="Path 278" d="M192.339,96.545a9.066,9.066,0,0,1,4.736,2.706,1.7,1.7,0,0,1,.467.913,1.448,1.448,0,0,1-.453,1.062,3.714,3.714,0,0,1-3.491.954,5.149,5.149,0,0,0-2.03-.3,2.808,2.808,0,0,0-1.6,1.265,9.4,9.4,0,0,0-1.231,2.422c-.162,0-.271-.176-.277-.338a.974.974,0,0,0-.061-.487.413.413,0,0,0-.562-.081.832.832,0,0,0-.311.528,1.725,1.725,0,0,0,.386,1.468,1.63,1.63,0,0,0-1.4.677c-.047.068-.108.142-.183.122a.19.19,0,0,1-.088-.074,6.468,6.468,0,0,1-.805-5.345,4.573,4.573,0,0,1,.677-1.576,2.361,2.361,0,0,1,.886-.785c.3-.142.832-.108,1.049-.359.345-.392.169-1.353.379-1.833C188.99,96.024,191.148,96.248,192.339,96.545Z" transform="translate(-63.405 -53.845)" fill="url(#linear-gradient-11)"/>
    <path id="Path_279" data-name="Path 279" d="M244.93,134.935a.636.636,0,0,1-.129.311.677.677,0,0,1-.3.129l-1.935.447a4.229,4.229,0,0,0-1.252.433,1.353,1.353,0,0,0-.71,1.062,1.4,1.4,0,0,0,.947,1.272,4.215,4.215,0,0,0,1.624.25,27.113,27.113,0,0,0,3.315-.074,4.56,4.56,0,0,0,2.2-.677,2.747,2.747,0,0,0,1.1-2.53,3.865,3.865,0,0,0-2.09-2.76C246.222,132.337,245.248,133.731,244.93,134.935Z" transform="translate(-81.331 -65.613)" fill="url(#linear-gradient-12)"/>
    <path id="Path_280" data-name="Path 280" d="M172.509,117.614a26.676,26.676,0,0,0-.839,3.085,7.679,7.679,0,0,1-1.793,4.391,8.368,8.368,0,0,1-2.212,2.03c-3,1.881-7.029,1.211-10.148,2.821a4.648,4.648,0,0,0-1.475,1.082,7.229,7.229,0,0,0-1.306,3.619q-1.049,5.913-2.517,11.731a3.687,3.687,0,0,1-.71,1.658c-.981,1.082-2.706.758-4.059.345l.244-10.358a30.059,30.059,0,0,1,.737-7.056,13.867,13.867,0,0,1,3.863-5.825c2.266-2.327,8.274-7.212,14.884-8.991l1.265-.3a16.3,16.3,0,0,1,3.822-.392.4.4,0,0,1,.183.047C172.854,115.693,172.759,116.592,172.509,117.614Z" transform="translate(-51.2 -60.03)" fill="#4a00ff"/>
    <path id="Path_281" data-name="Path 281" d="M172.483,117.62c-1.082.183-2.706.447-5.148.879-7.273,1.245-15.432,9.789-16.778,12.462s-1.5,15.966-1.5,15.966L147.37,148.4l.244-10.358a30.056,30.056,0,0,1,.737-7.056,13.867,13.867,0,0,1,3.863-5.825c2.266-2.327,8.274-7.212,14.884-8.991l1.265-.3a16.3,16.3,0,0,1,3.822-.392.4.4,0,0,1,.183.047C172.828,115.7,172.733,116.6,172.483,117.62Z" transform="translate(-51.174 -60.037)" fill="url(#linear-gradient-13)"/>
    <path id="Path_282" data-name="Path 282" d="M179.49,127.331s-.981,5.108-4.377,5.189a13.314,13.314,0,0,1-4.35-.751c.142,2.124-4.3,16.487-3.126,17.942a19.389,19.389,0,0,0,3.247,2.943,13.2,13.2,0,0,1-3.944-1.556,4.463,4.463,0,0,1-2.03-2.591,4.662,4.662,0,0,1,.142-1.759c1.042-5.047,2.1-10.094,3.146-15.148h0a4.952,4.952,0,0,1,.92-.325,28.581,28.581,0,0,0-3.5-.961,26.655,26.655,0,0,0-8.274,0l-1.657-2.226,1.982-1.739,17.536,4.269Z" transform="translate(-53.865 -63.557)" fill="url(#linear-gradient-14)"/>
    <path id="Path_283" data-name="Path 283" d="M149.857,164.6a3.247,3.247,0,0,0,.108,2.124,1.894,1.894,0,0,1,.237.467.622.622,0,0,1-.21.629.676.676,0,0,1-.677.061,1.049,1.049,0,0,0-.352-.189c-.318-.068-.521.325-.6.643-.149.622-.318,1.353-.9,1.6a1.475,1.475,0,0,1-1.725-.812,2.794,2.794,0,0,1-.338-1.806c.244-1.61,1.793-2.706,2.456-4.181.156-.365.061-.189.345-.467a1.143,1.143,0,0,1,1.028-.291C150.533,162.669,150,163.731,149.857,164.6Z" transform="translate(-50.528 -75.203)" fill="url(#linear-gradient-15)"/>
    <path id="Path_284" data-name="Path 284" d="M222.764,228.9q6.657.447,13.341.419c0-.744-.677-1.279-1.353-1.651-1.576-.927-3.193-1.793-4.7-2.828-1.143-.785-2.659-2.753-4.12-2.774C223.528,222.023,221.235,228.788,222.764,228.9Z" transform="translate(-75.402 -94.519)" fill="#606161"/>
    <path id="Path_285" data-name="Path 285" d="M143.872,269.77a1.434,1.434,0,0,0-.257,1.015,1.353,1.353,0,0,0,.839.764,14.836,14.836,0,0,0,5.5.954q4.174.142,8.335-.074a1.563,1.563,0,0,0,1.306-.514,1.055,1.055,0,0,0-.162-1.191,3.267,3.267,0,0,0-1.069-.677,25.487,25.487,0,0,1-4.445-2.571c-1.312-.995-2.375-2.706-3.89-3.383C147.126,262.768,144.995,267.754,143.872,269.77Z" transform="translate(-49.955 -108.041)" fill="#606161"/>
    <path id="Path_286" data-name="Path 286" d="M239.83,147.647l1.759.068L244.9,40.166l-1.908-.406Z" transform="translate(-77.577 -12.871)" fill="#4a00ff"/>
    <path id="Path_287" data-name="Path 287" d="M239.83,147.647l1.759.068L244.9,40.166l-1.908-.406Z" transform="translate(-77.577 -12.871)" fill="url(#linear-gradient-16)"/>
    <path id="Path_288" data-name="Path 288" d="M180.836,81.74l3.146,5.135-3,1.773-1.225-6.691Z" transform="translate(-58.147 -26.45)" fill="#4a00ff"/>
    <path id="Path_289" data-name="Path 289" d="M177.786,125a1.421,1.421,0,0,1-.162.426,6.3,6.3,0,0,1-2.192,2.794,4.1,4.1,0,0,1-2.659.392,10.65,10.65,0,0,1-2.584-.859,54.039,54.039,0,0,1-4.932-2.463,15.975,15.975,0,0,0-5.175-2.273,14,14,0,0,0-2.869-.068l-2.03.095a.974.974,0,0,0-.48.1.826.826,0,0,0-.216.216l-2.246,2.706,4.127,1.888a2.312,2.312,0,0,0,.677.223,2.49,2.49,0,0,0,.805-.074,17.976,17.976,0,0,1,7.712.2c2.361.582,4.607,1.644,7.016,2.03a6.461,6.461,0,0,0,2.706-.081,4.4,4.4,0,0,0,3.078-3.944,1.7,1.7,0,0,1,.095-.616c.142-.3.467-.447.677-.677a1.2,1.2,0,0,0,.264-1.218,1.218,1.218,0,0,0-.981-.778c-.325.216-.893.426-.954.859S177.786,124.566,177.786,125Z" transform="translate(-52.749 -62.443)" fill="#606161"/>
    <path id="Path_290" data-name="Path 290" d="M177.786,125a1.421,1.421,0,0,1-.162.426,6.3,6.3,0,0,1-2.192,2.794,4.1,4.1,0,0,1-2.659.392,10.65,10.65,0,0,1-2.584-.859,54.039,54.039,0,0,1-4.932-2.463,15.975,15.975,0,0,0-5.175-2.273,14,14,0,0,0-2.869-.068l-2.03.095a.974.974,0,0,0-.48.1.826.826,0,0,0-.216.216l-2.246,2.706,4.127,1.888a2.312,2.312,0,0,0,.677.223,2.49,2.49,0,0,0,.805-.074,17.976,17.976,0,0,1,7.712.2c2.361.582,4.607,1.644,7.016,2.03a6.461,6.461,0,0,0,2.706-.081,4.4,4.4,0,0,0,3.078-3.944,1.7,1.7,0,0,1,.095-.616c.142-.3.467-.447.677-.677a1.2,1.2,0,0,0,.264-1.218,1.218,1.218,0,0,0-.981-.778c-.325.216-.893.426-.954.859S177.786,124.566,177.786,125Z" transform="translate(-52.749 -62.443)" fill="url(#linear-gradient-17)"/>
    <path id="Path_291" data-name="Path 291" d="M189.48,109.9c0-.095.074-.169.074-.264a.365.365,0,0,0-.142-.237.23.23,0,0,0-.122-.074.183.183,0,0,0-.115.041.426.426,0,0,0-.108.352,1.813,1.813,0,0,0,.142.677c.054.129.149.271.291.284a.358.358,0,0,0,.183-.041c.122-.054.3-.25.169-.386s-.176-.061-.25-.115a.284.284,0,0,1-.122-.237Z" transform="translate(-64.66 -58.048)" fill="url(#linear-gradient-18)"/>
    <path id="Path_292" data-name="Path 292" d="M229.4,138.851l-.142.778-10.567,2.76c-2.084.534-4.31,1.062-6.332.386a10.737,10.737,0,0,1-3.437-2.165,41.008,41.008,0,0,1-5.866-5.6l.223-1.468s7.99,7.334,10.872,7.192c2.706-.142,13.822-1.671,15.127-1.86Z" transform="translate(-69.188 -65.883)" fill="#606161" opacity="0.22"/>
    <rect id="Rectangle_93" data-name="Rectangle 93" width="31.337" height="22.387" rx="2.76" transform="translate(85.756 96.499) rotate(-5.39)" fill="#606161"/>
    <rect id="Rectangle_94" data-name="Rectangle 94" width="31.337" height="22.387" rx="2.76" transform="translate(85.108 96.56) rotate(-5.39)" fill="url(#linear-gradient-19)"/>
    <rect id="Rectangle_95" data-name="Rectangle 95" width="31.337" height="22.387" rx="2.76" transform="translate(80.599 97.035) rotate(-5.39)" fill="#606161"/>
    <path id="Path_293" data-name="Path 293" d="M147.37,163.392l.528.487s1.658-2.03,2.841-.176l.717-.677S149.149,160.1,147.37,163.392Z" transform="translate(-51.174 -75.032)" fill="#4a00ff"/>
    <path id="Path_294" data-name="Path 294" d="M147.37,163.392l.528.487s1.658-2.03,2.841-.176l.717-.677S149.149,160.1,147.37,163.392Z" transform="translate(-51.174 -75.032)" fill="url(#linear-gradient-20)"/>
    <path id="Path_295" data-name="Path 295" d="M241.323,137.968l-.758-.068s-.108,2.821.4,3.2l.392-.034.3-.677A4.3,4.3,0,0,1,241.323,137.968Z" transform="translate(-81.316 -67.293)" fill="#4a00ff"/>
    <path id="Path_296" data-name="Path 296" d="M241.323,137.968l-.758-.068s-.108,2.821.4,3.2l.392-.034.3-.677A4.3,4.3,0,0,1,241.323,137.968Z" transform="translate(-81.316 -67.293)" fill="#606161" opacity="0.22"/>
    <path id="Path_297" data-name="Path 297" d="M474.836,238.852a1.2,1.2,0,0,0-1.61,1.218,53.066,53.066,0,0,0-.318,10.1,2.707,2.707,0,0,0,.311,1.312c.589.913,1.915.832,2.99.967,1.238.149,2.476.677,3.68.392a5.121,5.121,0,0,0,2.361-1.786c3.227-3.667,7.5-8.051,9.471-12.556-2.232-.643-5.947.4-8.389.48Q479.085,239.123,474.836,238.852Z" transform="translate(-156.439 -99.766)" fill="url(#linear-gradient-21)"/>
    <path id="Path_298" data-name="Path 298" d="M230.64,85.209s-4.553-10.148-14.769-6.427S193.62,72.74,193.62,72.74s2.111,11.893,9.593,13.03S217.36,83.524,220,88.361c4.025,7.381,10.642,5.081,10.642,5.081Z" transform="translate(-66.134 -46.216)" fill="url(#linear-gradient-22)"/>
  </g>
</svg>
