<svg xmlns="http://www.w3.org/2000/svg" width="47.307" height="49.864" viewBox="0 0 47.307 49.864">
  <g id="noun_Mechanic_1725744" transform="translate(-5 -2.519)">
    <ellipse id="Ellipse_214" data-name="Ellipse 214" cx="6.5" cy="4.5" rx="6.5" ry="4.5" transform="translate(11 28.52)" fill="#ffd00d"/>
    <g id="Group_726" data-name="Group 726" transform="translate(5 2.519)">
      <path id="Path_1005" data-name="Path 1005" d="M17.563,19.056c3.68-.315,7.412-.473,11.091-.473,1.051,0,2.155,0,3.259.053a12.568,12.568,0,0,1-.473-3.469,10.987,10.987,0,0,1,.053-1.314c-.946-.053-1.892-.053-2.838-.053-4.047,0-8.042.21-12.09.578a3.788,3.788,0,0,0-3.259,2.628L9.626,27.151H6.156A1.167,1.167,0,0,0,5,28.308v2.681a1.167,1.167,0,0,0,1.156,1.156H7.786a8.946,8.946,0,0,0-.526,3.1v9.777a1.924,1.924,0,0,0,1.367,1.84v5.309a1.94,1.94,0,0,0,1.945,1.945h3.68a1.815,1.815,0,0,0,.946-.263,2.916,2.916,0,0,0,.421-.315c.105-.105.158-.21.263-.315a1.9,1.9,0,0,0,.315-1.051v-5.2H31.966a12.652,12.652,0,0,1,3.469-5.624V28.939H14.041Zm-3,17.083h4.415a1.772,1.772,0,0,1,1.787,1.787v1.262a1.772,1.772,0,0,1-1.787,1.787H14.567a1.772,1.772,0,0,1-1.787-1.787V37.927A1.772,1.772,0,0,1,14.567,36.14Z" transform="translate(-5 -7.87)" fill="blue"/>
      <path id="Path_1006" data-name="Path 1006" d="M75.873,38.042V16.912h0a8.31,8.31,0,0,0-.158-14.3.62.62,0,0,0-.946.526V7.923a3.409,3.409,0,0,1-2.838,3.417A3.307,3.307,0,0,1,68.2,8.081V3.14a.62.62,0,0,0-.946-.526,8.339,8.339,0,0,0-.21,14.3V37.99a8.339,8.339,0,0,0,.21,14.3.62.62,0,0,0,.946-.526V46.978a3.449,3.449,0,0,1,2.838-3.417,3.307,3.307,0,0,1,3.732,3.259v4.888a.62.62,0,0,0,.946.526,8.415,8.415,0,0,0,4.153-7.2A8.234,8.234,0,0,0,75.873,38.042Z" transform="translate(-32.56 -2.519)" fill="blue"/>
    </g>
  </g>
</svg>
