<svg height="288.492" viewBox="0 0 299.045 288.492" width="299.045" xmlns="http://www.w3.org/2000/svg"><circle cx="18.263" cy="18.263" fill="#ebebeb" r="18.263" transform="matrix(.1615177 -.98686982 .98686982 .1615177 166.371 36.047)"/><circle cx="17.427" cy="17.427" fill="#dbdbdb" r="17.427" transform="matrix(.161 -.987 .987 .161 168.169 35.765)"/><circle cx="16.326" cy="16.326" fill="#fff" r="16.326" transform="matrix(.92614072 -.37717815 .37717815 .92614072 166.902 12.418)"/><path d="m187.973 6.239h.418v2.475h-.418z" fill="#ebebeb"/><path d="m0 0h.418v2.475h-.418z" fill="#ebebeb" transform="matrix(.86607776 -.49990931 .49990931 .86607776 180.43 8.372)"/><path d="m0 0h.418v2.475h-.418z" fill="#ebebeb" transform="matrix(.49993954 -.86606031 .86606031 .49993954 174.964 13.99)"/><path d="m173.04 21.172h2.475v.418h-2.475z" fill="#ebebeb"/><path d="m0 0h2.475v.418h-2.475z" fill="#ebebeb" transform="matrix(.86592067 -.50018137 .50018137 .86592067 174.964 28.77)"/><path d="m0 0h2.475v.418h-2.475z" fill="#ebebeb" transform="matrix(.49953136 -.8662958 .8662958 .49953136 180.43 34.389)"/><path d="m187.973 34.047h.418v2.475h-.418z" fill="#ebebeb"/><path d="m0 0h.418v2.475h-.418z" fill="#ebebeb" transform="matrix(.8659905 -.50006046 .50006046 .8659905 194.333 32.454)"/><path d="m0 0h.418v2.474h-.418z" fill="#ebebeb" transform="matrix(.5 -.866 .866 .5 199.047 27.894)"/><path d="m200.847 21.172h2.475v.418h-2.475z" fill="#ebebeb"/><path d="m0 0h2.474v.418h-2.474z" fill="#ebebeb" transform="matrix(.86603413 -.49998488 .49998488 .86603413 199.047 14.866)"/><path d="m0 0h2.475v.418h-2.475z" fill="#ebebeb" transform="matrix(.499486 -.86632196 .86632196 .499486 194.334 10.307)"/><path d="m0 0h15.798v.417h-15.798z" fill="#ebebeb" transform="matrix(.45336835 -.89132325 .89132325 .45336835 183.44 30.226)"/><path d="m0 0h.557v15.557h-.557z" fill="#dbdbdb" transform="matrix(.9805599 -.19621998 .19621998 .9805599 186.797 15.885)"/><g transform="translate(10.286 2.966)"><g fill="#ebebeb"><path d="m172.842 192.274h-117.526v-135.709h117.526zm-114.788-2.738h112.046v-130.236h-112.046z" transform="translate(-48.585 -56.03)"/><path d="m63.058 3.988h2.738v130.886h-2.738z"/><path d="m4.249 6.07h122.49v3.813h-122.49z"/><path d="m4.249 10.359h122.49v3.813h-122.49z"/><path d="m4.249 14.649h122.49v3.813h-122.49z"/><path d="m4.249 18.938h122.49v3.813h-122.49z"/><path d="m4.249 23.227h122.49v3.813h-122.49z"/><path d="m4.249 27.517h122.49v3.813h-122.49z"/><path d="m4.249 31.806h122.49v3.813h-122.49z"/><path d="m4.249 36.096h122.49v3.813h-122.49z"/><path d="m4.249 40.385h122.49v3.813h-122.49z"/></g><path d="m117.922 5.297h.685v87.882h-.685z" fill="#263238"/><path d="m218.913 194.958h-2.43l.609-3.491h1.208z" fill="#263238" transform="translate(-99.432 -98.59)"/><path d="m120.389 5.297h.685v127.135h-.685z" fill="#263238"/><path d="m222.515 251.393h-2.43l.609-3.491h1.212z" fill="#263238" transform="translate(-100.569 -116.395)"/><path d="m0 0h130.988v7.976h-130.988z" fill="#dbdbdb"/></g><path d="m219.823 34.371h73.846v92.993h-73.846z" fill="#ebebeb"/><path d="m228.97 53.586h55.3v1.758h-55.3z" fill="#dbdbdb"/><path d="m228.97 57.265h46.829v1.758h-46.829z" fill="#dbdbdb"/><path d="m228.97 60.944h35.711v1.758h-35.711z" fill="#dbdbdb"/><path d="m228.97 64.624h53.37v1.758h-53.37z" fill="#dbdbdb"/><path d="m228.97 68.303h48.831v1.758h-48.831z" fill="#dbdbdb"/><path d="m228.97 75.661h50.671v1.758h-50.671z" fill="#dbdbdb"/><path d="m228.97 79.34h19.412v1.758h-19.412z" fill="#dbdbdb"/><path d="m228.97 83.02h39.145v1.758h-39.145z" fill="#dbdbdb"/><path d="m228.97 86.699h53.37v1.758h-53.37z" fill="#dbdbdb"/><path d="m228.97 90.378h46.022v1.758h-46.022z" fill="#dbdbdb"/><path d="m228.97 97.736h49.867v1.758h-49.867z" fill="#dbdbdb"/><path d="m228.97 101.416h30.188v1.758h-30.188z" fill="#dbdbdb"/><path d="m228.97 112.554h30.188v1.758h-30.188z" fill="#dbdbdb"/><circle cx="279.614" cy="114.312" fill="#00f" r="5.592"/><path d="m375.6 112.134a3.047 3.047 0 0 1 1.855.632.2.2 0 0 1 .033.287.192.192 0 0 1 -.279.041 2.619 2.619 0 0 0 -1.609-.558 2.513 2.513 0 1 0 0 5.024 2.441 2.441 0 0 0 1.592-.558.2.2 0 0 1 .287.049.193.193 0 0 1 -.025.287 3.04 3.04 0 0 1 -1.855.624 2.915 2.915 0 1 1 0-5.829z" fill="#a6a6a6" transform="translate(-138.401 -70.595)"/><path d="m384.394 112.134a2.918 2.918 0 1 1 -2.775 2.915 2.831 2.831 0 0 1 2.775-2.915zm0 5.426a2.512 2.512 0 1 0 -2.373-2.511 2.444 2.444 0 0 0 2.373 2.511z" fill="#a6a6a6" transform="translate(-141.244 -70.595)"/><path d="m392.305 113.11v4.7a.2.2 0 0 1 -.394 0v-5.271a.2.2 0 0 1 .074-.222.205.205 0 0 1 .279.049l3.481 4.827v-4.673a.2.2 0 0 1 .4 0v5.3a.2.2 0 0 1 -.2.2.192.192 0 0 1 -.156-.073c-.008-.009-.025-.016-.033-.033z" fill="#a6a6a6" transform="translate(-144.488 -70.644)"/><path d="m402.293 112.656h-1.733a.2.2 0 0 1 0-.4h3.859a.2.2 0 0 1 0 .4h-1.732v5.144a.2.2 0 0 1 -.394 0z" fill="#a6a6a6" transform="translate(-147.158 -70.633)"/><path d="m411.591 116.7a1.037 1.037 0 0 0 -.468-.87 1.818 1.818 0 0 0 -.665-.287c-.025-.009-.033-.016-.041-.016h-1.4v2.273a.2.2 0 0 1 -.4 0v-5.353a.2.2 0 0 1 .181-.2h1.641a1.642 1.642 0 0 1 .689 3.128.768.768 0 0 0 .082.04 1.454 1.454 0 0 1 .772 1.281 2.236 2.236 0 0 0 .073.665.3.3 0 0 0 .083.14.217.217 0 0 1 .222.131.223.223 0 0 1 -.132.262.781.781 0 0 1 -.1.009h-.017a.459.459 0 0 1 -.37-.263 2.045 2.045 0 0 1 -.15-.94zm-1.149-4.047h-1.42v2.479h1.453a1.24 1.24 0 0 0 -.033-2.479z" fill="#a6a6a6" transform="translate(-149.762 -70.633)"/><path d="m419.259 116.526h-2.619l-.509 1.355a.2.2 0 0 1 -.189.131c-.016 0-.049-.008-.073-.008a.208.208 0 0 1 -.115-.263l1.995-5.328a.219.219 0 0 1 .2-.123.2.2 0 0 1 .2.123l1.995 5.328a.206.206 0 0 1 -.107.263c-.033 0-.049.008-.074.008a.211.211 0 0 1 -.189-.131zm-2.472-.4h2.324l-1.158-3.087z" fill="#a6a6a6" transform="translate(-152.009 -70.644)"/><path d="m426.177 112.134a3.046 3.046 0 0 1 1.855.632.2.2 0 0 1 .033.287.192.192 0 0 1 -.279.041 2.619 2.619 0 0 0 -1.609-.558 2.513 2.513 0 1 0 0 5.024 2.441 2.441 0 0 0 1.592-.558.2.2 0 0 1 .287.049.193.193 0 0 1 -.025.287 3.04 3.04 0 0 1 -1.855.624 2.915 2.915 0 1 1 0-5.829z" fill="#a6a6a6" transform="translate(-154.359 -70.595)"/><path d="m434.093 112.656h-1.732a.2.2 0 0 1 0-.4h3.859a.2.2 0 0 1 0 .4h-1.732v5.144a.2.2 0 0 1 -.395 0z" fill="#a6a6a6" transform="translate(-157.191 -70.633)"/><path d="m255.69 340.5h135.61l2.821-55.643h-141.252z" fill="#ebebeb" transform="translate(-100.625 -125.088)"/><path d="m419.088 313.164h-56.688l-1.063-19.317h59zm-56.045-.685h55.4l1.153-17.948h-57.54z" fill="#dbdbdb" transform="translate(-134.844 -127.924)"/><path d="m419.156 346.5h-53.427l-.868-17.437h55.384zm-52.776-.685h52.132l1-16.068h-53.932z" fill="#dbdbdb" transform="translate(-135.957 -139.033)"/><path d="m407.6 308.87h-9.526l-.6-4.659h10.726zm-8.925-.685h8.325l.424-3.29h-9.172z" fill="#dbdbdb" transform="translate(-146.247 -131.194)"/><path d="m407.6 343.052h-9.526l-.6-4.659h10.726zm-8.925-.684h8.325l.424-3.29h-9.172z" fill="#dbdbdb" transform="translate(-146.247 -141.978)"/><path d="m321.667 313.164h-56.693l-1.064-19.317h59zm-56.045-.685h55.4l1.152-17.948h-57.54z" fill="#dbdbdb" transform="translate(-104.109 -127.924)"/><path d="m321.735 346.5h-53.427l-.868-17.437h55.384zm-52.776-.685h52.132l1-16.068h-53.932z" fill="#dbdbdb" transform="translate(-105.223 -139.033)"/><path d="m310.183 308.87h-9.526l-.6-4.659h10.728zm-8.925-.685h8.324l.424-3.29h-9.172z" fill="#dbdbdb" transform="translate(-115.513 -131.194)"/><path d="m310.183 343.052h-9.526l-.6-4.659h10.728zm-8.925-.684h8.324l.424-3.29h-9.172z" fill="#dbdbdb" transform="translate(-115.513 -141.978)"/><path d="m272.031 366.145-.851 6.062-1.713 12.18h-3.349v-18.242z" fill="#ebebeb" transform="translate(-104.805 -150.734)"/><path d="m272.031 366.145-.851 6.062h-5.062v-6.062z" fill="#dbdbdb" transform="translate(-104.805 -150.734)"/><path d="m437.331 366.145.851 6.062 1.713 12.18h3.349v-18.242z" fill="#ebebeb" transform="translate(-158.821 -150.734)"/><path d="m437.331 366.145.851 6.062h5.062v-6.062z" fill="#dbdbdb" transform="translate(-158.821 -150.734)"/><ellipse cx="150.28" cy="272.403" fill="#ebebeb" rx="123.511" ry="16.09"/><ellipse cx="36.979" cy="245.928" fill="#ebebeb" rx="36.979" ry="8.86"/><path d="m2.016 233.653h296.529" fill="none" stroke="#263238" stroke-linecap="round" stroke-linejoin="round"/><path d="m79.268 208.181s-18.409-2.577-14.106-24.8c.001.001 20.568 4.619 14.106 24.8z" fill="#ffc727" transform="translate(-41.199 -93.073)"/><path d="m79.268 208.181s-18.409-2.577-14.106-24.8c.001.001 20.568 4.619 14.106 24.8z" opacity=".1" transform="translate(-41.199 -93.073)"/><path d="m80.147 205.666c-.36-1.124-.784-2.228-1.253-3.312-.014-.142-.036-.283-.048-.42q-.04-.458-.076-.917c-.052-.663-.094-1.327-.133-1.991-.078-1.327-.164-2.657-.183-3.985a.056.056 0 0 0 -.112 0c-.012 1.331-.031 2.659.02 3.989.025.664.064 1.328.108 1.991.01.148.021.3.031.442a39.488 39.488 0 0 0 -3.691-6.312c-.632-.884-1.3-1.733-2.013-2.552-.734-.84-1.509-1.639-2.251-2.47-.048-.054-.127.029-.077.081a32.9 32.9 0 0 1 3.548 4.716q.839 1.27 1.59 2.6c-.058-.023-.115-.045-.171-.068-.218-.09-.436-.181-.656-.265q-.75-.289-1.5-.569c-.988-.367-1.977-.728-2.961-1.1-.059-.023-.1.08-.041.1.979.39 1.947.8 2.915 1.22q.713.307 1.426.613c.238.1.478.2.719.3a2.266 2.266 0 0 0 .488.173c.372.666.739 1.335 1.078 2.017a48.064 48.064 0 0 1 2.249 5.3c.044.127.088.255.132.381a10.714 10.714 0 0 0 -1.508-.726c-.633-.294-1.271-.578-1.9-.869-1.291-.593-2.574-1.194-3.811-1.893a.056.056 0 0 0 -.054.1c1.265.691 2.5 1.427 3.772 2.114.633.344 1.27.678 1.919.993a6.021 6.021 0 0 0 1.729.693 21.819 21.819 0 0 1 1.207 5.221c.205 2.513.182 5.046.24 7.565 0 .044.064.04.068 0 .183-2.286.286-4.592.3-6.884a20.015 20.015 0 0 0 -1.1-6.276z" fill="#263238" transform="translate(-43.008 -95.197)"/><path d="m80.472 193.724a22.01 22.01 0 0 0 -.183 3.919.028.028 0 0 0 .056 0c.074-1.3.086-2.6.236-3.891.008-.072-.101-.1-.109-.028z" fill="#263238" transform="translate(-46.167 -96.322)"/><path d="m71.752 194.828a14.249 14.249 0 0 1 -2.368-1.163c-.06-.04-.116.06-.054.1a9.028 9.028 0 0 0 2.391 1.142c.046.01.079-.061.031-.079z" fill="#263238" transform="translate(-42.711 -96.314)"/><path d="m86.161 249.5c-.016-2.035-.054-4.069-.077-6.1-.038-6.756-.094-13.511-.216-20.267q-.145-8.045-.374-16.087a.086.086 0 0 0 -.047-.068q-.011-2.2-.023-4.393c0-.038-.044-.055-.088-.054s-.088.02-.088.057q-.013 2.2-.027 4.4a.085.085 0 0 0 -.042.064c-.27 9.544-.513 19.09-.569 28.637-.012 1.941-.01 3.882-.019 5.823q-.1 9.335-.071 18.672c-.007.991-.018 1.982-.022 2.973-.021 5.694.059 11.389.061 17.084 0 .307.34.459.7.473.412.016.853-.149.853-.5 0-6.28.043-12.559.042-18.839.022-3.958.036-7.916.007-11.875z" fill="#263238" transform="translate(-47.504 -99.114)"/><path d="m63.264 260.433s-8.854-6.56-17.257-2.127-9.721 21.519-9.721 21.519 12.34 1.765 20.11-5.631c7.488-7.128 6.868-13.761 6.868-13.761z" fill="#ffc727" transform="translate(-32.294 -116.226)"/><path d="m68.316 262.039a10.593 10.593 0 0 0 -5.13-.669 7.4 7.4 0 0 0 -1.085-.106q-.624-.045-1.248-.094c-.86-.067-1.722-.118-2.582-.183-1.746-.13-3.5-.237-5.241-.412-.062-.006-.075.1-.012.11 1.725.22 3.443.466 5.174.641.89.09 1.78.182 2.672.246.209.015.426.038.648.063-.265.06-.528.122-.786.2a20.907 20.907 0 0 0 -4.012 1.631c-.7.125-1.391.32-2.075.481-1.1.258-2.186.541-3.275.826-2.15.563-4.277 1.2-6.411 1.817a.056.056 0 0 0 .032.107c2.132-.523 4.275-1 6.411-1.51 1.038-.247 2.078-.491 3.114-.746.268-.066.541-.127.814-.188a25.946 25.946 0 0 0 -6.293 5.471 34.187 34.187 0 0 0 -4.373 6.9c-.031.064.058.125.094.061a33.55 33.55 0 0 1 5.293-6.947c-.038.118-.078.235-.115.353q-.247.783-.492 1.564c-.328 1.043-.659 2.084-.971 3.132-.021.071.085.094.11.027.372-1.01.726-2.027 1.084-3.043l.526-1.5c.091-.258.178-.518.266-.777.027-.08.058-.159.085-.237a31.206 31.206 0 0 1 3.141-2.676 23.83 23.83 0 0 1 4.7-2.694c-.031.153-.058.307-.09.453-.087.4-.177.807-.26 1.212-.173.838-.336 1.678-.5 2.518-.333 1.713-.54 3.449-.862 5.163a.056.056 0 0 0 .11.027c.4-1.723.908-3.418 1.293-5.146.192-.864.387-1.727.566-2.593.084-.4.164-.81.246-1.215.046-.226.1-.451.125-.678.161-.064.318-.138.481-.2a13.966 13.966 0 0 1 7.367-1.009 7.24 7.24 0 0 1 5.329 4.27c.08.193.385.073.34-.124a6.841 6.841 0 0 0 -4.208-4.526z" fill="#263238" transform="translate(-34.933 -117.427)"/><path d="m58.792 273.354q-.376 1.682-.747 3.366a24.858 24.858 0 0 0 -.619 3.274c0 .043.06.044.072.008a25.134 25.134 0 0 0 .752-3.3q.327-1.661.651-3.323c.014-.069-.093-.096-.109-.025z" fill="#263238" transform="translate(-38.964 -121.445)"/><path d="m45.328 277.538c-1.127.572-2.22 1.222-3.4 1.69a.056.056 0 1 0 .045.1 36.157 36.157 0 0 0 3.379-1.749c.03-.016.004-.056-.024-.041z" fill="#263238" transform="translate(-34.063 -122.778)"/><path d="m69.449 233.566s-10.821.691-15.855-6.446-3.9-17.326-3.9-17.326 11.367 1.381 15.881 6.506 3.874 17.266 3.874 17.266z" fill="#ffc727" transform="translate(-36.489 -101.406)"/><path d="m76.445 246.1c-.374-1.16-.839-2.3-1.277-3.439q-.63-1.639-1.346-3.242a66.934 66.934 0 0 0 -3.244-6.376c-.763-1.316-1.581-2.592-2.424-3.85-.017-.192-.055-.383-.085-.576-.05-.335-.1-.67-.151-1-.107-.685-.227-1.368-.342-2.052-.249-1.494-.557-2.978-.8-4.475-.011-.07-.123-.068-.112 0 .218 1.476.367 2.962.574 4.439.1.726.2 1.453.307 2.177.04.262.082.524.123.786a77.875 77.875 0 0 0 -5.353-6.944c-.259-.3-.526-.59-.79-.884-.027-.082-.068-.164-.1-.247q-.12-.309-.235-.619-.238-.644-.469-1.291c-.3-.847-.576-1.7-.806-2.573-.018-.07-.125-.038-.107.033.218.888.449 1.775.709 2.652.125.424.264.842.413 1.257.025.07.052.139.077.209-1.383-1.507-2.826-2.961-4.284-4.4-.051-.051-.128.03-.077.081a77.5 77.5 0 0 1 7.668 9.393 6.932 6.932 0 0 0 -.8-.2c-.833-.162-1.674-.279-2.515-.387-1.763-.225-3.522-.447-5.278-.724-.071-.012-.1.094-.027.109 1.677.331 3.338.708 5 1.09.787.181 1.574.335 2.366.49a15.2 15.2 0 0 1 1.9.541c.175.251.356.5.528.749.794 1.156 1.557 2.335 2.3 3.524-.368-.074-.737-.144-1.1-.216-.835-.162-1.675-.313-2.514-.452-1.65-.271-3.3-.558-4.934-.93a.056.056 0 0 0 -.027.109c1.654.388 3.294.843 4.937 1.279q1.188.316 2.392.581c.4.088.8.177 1.2.259a2.817 2.817 0 0 0 .487.084q2.371 3.844 4.438 7.864.906 1.766 1.748 3.564c.579 1.229 1.074 2.483 1.608 3.73.114.248.509.145.422-.123z" fill="#263238" transform="translate(-38.405 -103.259)"/><path d="m69.494 222.345q-.31-1.548-.653-3.089c-.016-.07-.122-.038-.107.033q.307 1.521.584 3.048a30.557 30.557 0 0 0 .614 3.032.017.017 0 0 0 .034-.005 21.461 21.461 0 0 0 -.472-3.019z" fill="#263238" transform="translate(-42.531 -104.379)"/><path d="m59.082 222.721c-.5-.25-1.033-.452-1.555-.655q-.411-.159-.821-.321l-.418-.168a1.977 1.977 0 0 1 -.457-.2c-.081-.061-.134.082-.053.1a2.018 2.018 0 0 1 .463.189l.409.183c.264.117.526.235.79.352a15.324 15.324 0 0 0 1.6.633.059.059 0 0 0 .042-.113z" fill="#263238" transform="translate(-38.431 -105.056)"/><path d="m94.788 225.473s6.55-12.234 16.513-14.128 16.061 8.356 16.061 8.356-7.267 9.281-16.41 10.9-16.164-5.128-16.164-5.128z" fill="#ffc727" transform="translate(-50.751 -101.822)"/><path d="m114.837 217.767a26.94 26.94 0 0 0 -7.814.092c.149-.082.3-.164.444-.238q1.11-.563 2.211-1.139c1.529-.8 3.076-1.643 4.678-2.284a.056.056 0 1 0 -.046-.1c-1.559.726-3.174 1.334-4.737 2.053-.782.359-1.551.734-2.312 1.138-.491.26-1.036.507-1.519.818a27.513 27.513 0 0 0 -6.333 2.1c.416-.452.832-.9 1.246-1.357.929-1.016 1.842-2.084 2.863-3.01.053-.049-.028-.125-.081-.077-1.043.947-2.144 1.824-3.155 2.809-.491.477-.96.973-1.418 1.482-.228.254-.457.517-.674.789a26.249 26.249 0 0 0 -13.358 18.037c-.014.068.085.107.106.036a30.105 30.105 0 0 1 7.324-12.394 28.8 28.8 0 0 1 13.349-7.723 29.241 29.241 0 0 1 9.212-.837.1.1 0 0 0 .014-.195z" fill="#263238" transform="translate(-47.61 -102.762)"/><path d="m127.649 223.056s-7.269 9.282-16.415 10.9c-6.974 1.237-12.712-2.4-15.041-4.192l-.5-.826s4.716-3.976 13.639-6.27 18.317.388 18.317.388z" opacity=".1" transform="translate(-51.036 -105.175)"/><path d="m118.3 213.086a24.758 24.758 0 0 0 -2.213 1.46 14.089 14.089 0 0 0 -1.921 1.759c-.052.057.029.13.086.081.661-.574 1.326-1.149 2.012-1.693a20.989 20.989 0 0 1 2.1-1.511.056.056 0 0 0 -.064-.096z" fill="#263238" transform="translate(-56.859 -102.442)"/><path d="m127.156 216.113c-.369.154-.746.287-1.115.44l-1.11.461c-.079.032-.042.162.039.129l1.112-.451c.371-.151.734-.321 1.105-.471.068-.027.035-.136-.031-.108z" fill="#263238" transform="translate(-60.247 -103.399)"/><path d="m92.879 253.559s1.75 12.135 10.875 16.38 20.25 0 20.25 0-4.374-26.255-31.125-16.38z" fill="#ffc727" transform="translate(-50.149 -114.513)"/><path d="m115.259 262.743c-.842-.1-1.678-.24-2.511-.392q-.614-.112-1.227-.232c-.207-.04-.424-.09-.641-.128-.246-.229-.487-.462-.739-.684a36.845 36.845 0 0 0 -5.581-4.045 31.507 31.507 0 0 0 -3.345-1.719l.172.008c1 .042 2 .084 3 .13 2 .093 4.005.137 6.007.266.072 0 .068-.107 0-.112-2.01-.136-4.008-.357-6.014-.529q-1.459-.126-2.919-.26c-.5-.045-1-.088-1.5-.131-.129-.011-.257-.027-.385-.041-.521-.194-1.045-.377-1.575-.542a14.226 14.226 0 0 0 -7.729-.426c-2.3.588-4.587 2.093-5.181 4.512-.021.083.11.142.145.057.856-2.023 3.1-3.041 5.127-3.462a12.211 12.211 0 0 1 4.132-.08 9.875 9.875 0 0 0 .461 1.835c.253.854.5 1.708.76 2.561.517 1.7 1.087 3.392 1.591 5.1a.056.056 0 0 0 .107-.032c-.424-1.7-.782-3.422-1.192-5.128-.2-.838-.413-1.674-.62-2.511a14.313 14.313 0 0 0 -.459-1.725 21.885 21.885 0 0 1 2.368.558 34.881 34.881 0 0 1 4.136 1.516c.133.865.327 1.723.526 2.575.249 1.072.528 2.133.867 3.18a.053.053 0 0 0 .1-.031c-.014-.066-.027-.132-.04-.2-.2-.993-.424-1.982-.633-2.973-.168-.8-.323-1.6-.5-2.4 1.134.509 2.248 1.066 3.326 1.685.022.247.082.5.118.726.066.416.142.831.218 1.245.172.936.359 1.869.583 2.794a43.94 43.94 0 0 0 1.569 5.278.057.057 0 0 0 0 .07l.052.06c.04.047.1-.008.092-.057-.422-1.8-.9-3.581-1.3-5.386-.2-.9-.4-1.8-.577-2.707-.09-.452-.173-.906-.259-1.359-.025-.127-.043-.266-.064-.406a38.391 38.391 0 0 1 8.992 7.335c.065.073.194-.03.134-.109a33.948 33.948 0 0 0 -2.175-2.653c-.459-.492-.935-.967-1.421-1.433l.152.027c.427.073.856.136 1.285.193.844.113 1.691.2 2.537.292.071.007.101-.102.03-.11z" fill="#263238" transform="translate(-47.691 -115.21)"/><path d="m119.447 271.517c-.014-.1-.032-.21-.052-.314-.026-.135-.092-.263-.111-.4-.188-.81-.346-1.627-.493-2.448-.01-.057-.1-.04-.1.016a9.919 9.919 0 0 0 .694 3.168c.012.032.07.029.065-.01z" fill="#263238" transform="translate(-58.292 -119.87)"/><path d="m107.9 269.607a.053.053 0 0 0 -.054-.051c-.256-1.075-.5-2.15-.724-3.232-.116-.569-.235-1.137-.344-1.707q-.088-.461-.17-.922a2.689 2.689 0 0 0 -.2-.789.056.056 0 0 0 -.1.016 5.339 5.339 0 0 0 .229 1.628c.112.592.227 1.184.357 1.772.265 1.2.565 2.39.9 3.568a.062.062 0 0 0 .121-.019z" fill="#263238" transform="translate(-54.38 -118.154)"/><path d="m125.612 261.565c-1.667-.229-3.332-.47-5-.672-.071-.008-.1.1-.027.109 1.664.246 3.334.452 5 .672.071.009.099-.099.027-.109z" fill="#263238" transform="translate(-58.876 -117.527)"/><path d="m85.821 197.144s-5.584-24.5 20.738-34.41c0 0 7.292 32.246-20.738 34.41z" fill="#ffc727" transform="translate(-47.766 -86.559)"/><path d="m91.5 187.261c.1-.063.194-.123.282-.172.5-.274.992-.554 1.487-.831l3.053-1.708c2.01-1.124 3.993-2.292 6.015-3.392.064-.034 0-.13-.059-.1-2.026 1.1-4.088 2.133-6.126 3.21l-3.017 1.595q-.616.326-1.233.652c.878-1.665 1.816-3.3 2.847-4.87 1.376-2.1 2.882-4.1 4.453-6.053a.09.09 0 0 0 -.131-.124 41.827 41.827 0 0 0 -6.085 7.461c0-.086 0-.173.008-.255.03-.609.046-1.219.055-1.829.018-1.2-.04-2.393 0-3.587 0-.073-.109-.069-.112 0-.049 1.177-.19 2.35-.257 3.527-.034.587-.059 1.173-.076 1.761-.01.318-.04.68-.028 1.027q-.813 1.294-1.555 2.625a45.489 45.489 0 0 0 -2.352 4.933c-.027-.611-.064-1.22-.1-1.83-.079-1.342-.242-2.677-.3-4.019a.056.056 0 0 0 -.112 0c.028 1.342-.034 2.683.008 4.026.021.671.041 1.341.086 2.011.016.246.029.5.046.748a44.451 44.451 0 0 0 -1.988 6.731 72.381 72.381 0 0 0 -.981 7.4c0 .018.027.016.028 0a39.841 39.841 0 0 1 1.4-6.6c.326-1.156.669-2.307 1.04-3.448 1.1-.515 2.143-1.159 3.2-1.745 1.1-.609 2.2-1.2 3.3-1.807 2.195-1.2 4.387-2.43 6.653-3.494.066-.031.005-.125-.059-.1-2.3 1.04-4.608 2.028-6.861 3.16-1.122.564-2.225 1.166-3.318 1.782-.914.515-1.854 1.031-2.726 1.623.255-.763.522-1.522.813-2.273a65.646 65.646 0 0 1 2.702-6.035z" fill="#263238" transform="translate(-47.766 -90.569)"/><path d="m91.056 184.5c-.005-.072-.117-.07-.112 0 .094 1.4.142 2.794.29 4.188.008.078.126.078.123 0-.048-1.401-.198-2.788-.301-4.188z" fill="#263238" transform="translate(-49.539 -93.41)"/><path d="m107.251 191.357c-1.648.663-3.31 1.294-4.949 1.98-.046.019-.025.093.023.075 1.663-.622 3.3-1.3 4.959-1.947.066-.026.034-.135-.033-.108z" fill="#263238" transform="translate(-53.114 -95.588)"/><path d="m111.026 174.85a43.3 43.3 0 0 0 -4.681 2.511.07.07 0 0 0 .074.119c1.526-.893 3.081-1.749 4.666-2.535.065-.031.005-.124-.059-.095z" fill="#263238" transform="translate(-54.387 -90.38)"/><path d="m18.282 163.56h37.959v40.011h-37.959z" fill="#455a64"/><path d="m15.67 177.717h1.942v68.534h-1.942z" fill="#263238"/><path d="m56.707 177.717h1.942v68.534h-1.942z" fill="#263238"/><path d="m37.222 177.717h1.942v68.534h-1.942z" fill="#263238"/><path d="m16.641 201.006h41.037v5.54h-41.037z" fill="#263238"/><path d="m298.762 378.5s0 21.251 0 21.266c.021 4.064-.034 7.627-.234 9.468a.072.072 0 0 1 0 .03 2.843 2.843 0 0 1 -.294 1.257c-.009.01-.014.02-.024.026-1.205.825-33.678 1.937-34.823 1.594s-.26-3.634.966-4.683 13.473-7.035 13.473-7.035l.206-21.242z" fill="#ad6359" transform="translate(-89.87 -144.585)"/><path d="m298.759 412.754s0 4.348 0 4.363c.021 4.064-.034 7.627-.234 9.468a.072.072 0 0 1 0 .03 5.492 5.492 0 0 1 -.294 1.257c-.009.01-.014.02-.024.026-1.205.825-33.678 1.937-34.823 1.594s-.26-3.634.966-4.683 13.473-7.035 13.473-7.035l-.06-4.428z" fill="#c7c7c7" transform="translate(-89.87 -161.934)"/><path d="m263.381 433.787c1.147.343 33.617-.768 34.825-1.6.465-.306.579-5.047.552-10.779v-.18l-20.956.483.02.355s-12.238 5.984-13.471 7.035-2.118 4.348-.97 4.686z" fill="#263238" transform="translate(-89.872 -166.229)"/><path d="m264.5 443.056c5.469-.322 27.557-1.1 32.987-1.006.044 0 .045.031 0 .035-5.413.437-27.507 1.04-32.985 1.061-.118 0-.121-.083-.002-.09z" fill="#455a64" transform="translate(-90.662 -176.77)"/><path d="m289.512 422.954a7.632 7.632 0 0 1 6.488 1.246c.066.057-.016.15-.087.131a30.314 30.314 0 0 0 -6.379-1.1.138.138 0 0 1 -.022-.277z" fill="#455a64" transform="translate(-103.322 -166.99)"/><path d="m286.427 424.96a7.631 7.631 0 0 1 6.484 1.243c.066.057-.017.15-.087.13a30.274 30.274 0 0 0 -6.379-1.1.138.138 0 0 1 -.018-.273z" fill="#455a64" transform="translate(-101.759 -168.006)"/><path d="m283.342 426.967a7.632 7.632 0 0 1 6.484 1.243c.066.057-.016.15-.087.13a30.31 30.31 0 0 0 -6.379-1.1.138.138 0 0 1 -.018-.273z" fill="#455a64" transform="translate(-100.196 -169.022)"/><path d="m324.045 210.57-.027 1.951-1.1 86.152-.007.329-.65 51.605-21.961-1.248-3.487-138.686.082-1.862.308-16.161h26.627z" fill="#455a64" transform="translate(-112.57 -95.998)"/><path d="m292.6 414.766c3.1-.043 2.209-.1 5.307-.088 1.517.006 11.48.06 12.894.46.031.009.031.092 0 .1-1.42.346-11.381.016-12.9-.037-3.1-.107-2.208-.129-5.3-.292-.063-.003-.062-.142-.001-.143z" fill="#263238" transform="translate(-102.39 -166.045)"/><path d="m311.3 232.046a.053.053 0 0 0 -.107 0c-.014 8.244-.335 12.866-.535 21.108s-.44 16.481-.663 24.721c-.446 16.472-1.11 32.937-1.718 49.4q-.512 13.851-1.279 27.7c0 .062.092.059.1 0 1.2-16.451 2.341-32.906 2.993-49.389.652-16.467 1.127-32.939 1.2-49.42.047-9.247-.003-14.873.009-24.12z" fill="#263238" transform="translate(-117.703 -108.411)"/><path d="m329.138 210.574-1.123 88.1-21.13-106.021h22.041z" fill="#263238" transform="translate(-117.667 -95.999)"/><path d="m347.034 376.171s2.111 15.529 2.114 15.54c.419 2.967.734 5.577.771 6.942a.046.046 0 0 1 0 .022 2.1 2.1 0 0 1 -.09.947c-.006.009-.008.016-.015.021-.8.723-24.416 4.766-25.287 4.63s-.551-2.63.24-3.518 9.145-6.481 9.145-6.481l-1.963-15.542z" fill="#ad6359" transform="matrix(.99254615 -.12186934 .12186934 .99254615 -145.27961937404 -92.16268041561)"/><path d="m348.714 410.112s.432 3.177.434 3.188c.419 2.967.734 5.577.771 6.942a.046.046 0 0 1 0 .022 4.075 4.075 0 0 1 -.09.947c-.006.009-.008.016-.015.021-.8.723-24.416 4.766-25.287 4.63s-.551-2.63.24-3.518 9.145-6.481 9.145-6.481l-.484-3.229z" fill="#c7c7c7" transform="matrix(.99254615 -.12186934 .12186934 .99254615 -147.9106565553 -113.59075924796)"/><path d="m324.529 431.206c.872.137 24.487-3.906 25.288-4.631.309-.27-.079-3.746-.669-7.931l-.02-.131-15.265 2.438.05.258s-8.347 5.59-9.144 6.481-1.112 3.383-.24 3.516z" fill="#263238" transform="matrix(.99254615 -.12186934 .12186934 .99254615 -148.56391140056 -118.89468213488)"/><path d="m325.642 443.729c3.964-.779 20.026-3.548 24-4.017.032 0 .036.018 0 .025-3.912.858-20 3.5-24 4.057-.074.012-.084-.048 0-.065z" fill="#455a64" transform="matrix(.99254615 -.12186934 .12186934 .99254615 -151.20185069276 -132.15705388895)"/><path d="m347.615 425.91a5.629 5.629 0 0 1 4.862.263c.054.035 0 .111-.051.1a22.341 22.341 0 0 0 -4.771-.17.1.1 0 0 1 -.04-.193z" fill="#455a64" transform="matrix(.99254615 -.12186934 .12186934 .99254615 -163.96703171224 -121.47373790527)"/><path d="m344.829 428.314a5.628 5.628 0 0 1 4.862.263c.054.035 0 .111-.051.1a22.363 22.363 0 0 0 -4.771-.17.1.1 0 0 1 -.04-.193z" fill="#455a64" transform="matrix(.99254615 -.12186934 .12186934 .99254615 -162.39358560915 -123.20741530844)"/><path d="m342.042 430.719a5.627 5.627 0 0 1 4.862.263c.054.035 0 .111-.051.1a22.318 22.318 0 0 0 -4.771-.17.1.1 0 0 1 -.04-.193z" fill="#455a64" transform="matrix(.99254615 -.12186934 .12186934 .99254615 -160.82113205221 -124.94097084227)"/><path d="m304.147 192.613a.109.109 0 0 0 .007.027c.116.548 1.978 9.186 3.909 16.606 1.4 5.421 2.848 10.185 3.676 10.678.938.554 5.51 2.581 7.044 3.217l7 66.911 24.217 61.278 16.2-4.086-22.03-135.65-3.587-18.981z" fill="#455a64" transform="translate(-116.803 -95.986)"/><path d="m349.793 414.656c2.542-.781 1.807-.625 4.354-1.352 1.246-.355 9.437-2.678 10.629-2.62.026 0 .033.084.007.1-1.139.68-9.349 2.729-10.6 3.039-2.553.633-1.824.4-4.381.976-.046.01-.056-.128-.009-.143z" fill="#263238" transform="translate(-117.483 -164.785)"/><path d="m366.776 339.232q-1.152-6.451-2.329-12.9-2.376-12.9-4.8-25.785-4.849-25.806-9.561-51.636c-1.767-9.726-1.719-8.813-3.266-18.577-.011-.068-.118-.058-.107.01 1.481 8.678.78 6.775 2.177 15.468q2.075 12.912 4.4 25.783c3.092 17.242 6.335 34.459 9.618 51.665q1.38 7.235 2.8 14.463c.963 4.915 2.06 9.8 3.07 14.706.023.109.2.1.176-.016-.748-4.391-1.395-8.796-2.178-13.181z" fill="#263238" transform="translate(-130.231 -107.872)"/><path d="m357.7 226.333c-.823-.212-1.7-.279-2.544-.411-.678-.107-1.355-.227-2.025-.375a8.843 8.843 0 0 1 -3.574-1.5 8.509 8.509 0 0 1 -2.318-3.6q-.5-1.177-1.027-2.34c-.17-.377-.34-.753-.515-1.127a12.793 12.793 0 0 1 -.635-1.353c-.022-.066-.129-.031-.1.031a9 9 0 0 1 .286.974c.114.378.223.758.34 1.135.209.673.412 1.348.635 2.017a16.014 16.014 0 0 0 1.433 3.542c1.241 1.977 3.462 2.773 5.681 3.054.637.08 1.278.125 1.918.162a13.8 13.8 0 0 0 2.425.018.113.113 0 0 0 .02-.227z" fill="#263238" transform="translate(-129.678 -103.234)"/><path d="m311.548 230.737a59.837 59.837 0 0 1 9.426 4.39.107.107 0 0 1 -.088.194c-3.175-1.364-6.413-2.669-9.51-4.206a.208.208 0 0 1 .172-.378z" fill="#263238" transform="translate(-119.046 -108.01)"/><path d="m310.186 198.927c.008-.11.2-.134.2-.016a105.629 105.629 0 0 0 .533 10.609c.147 1.636 1.463 10.675 4.3 10.016.474-.11.717-.578.791-1.294a11.357 11.357 0 0 0 -.376-2.772c-.315-1.892-.567-3.79-.73-5.7a51.885 51.885 0 0 1 .115-10.693.092.092 0 0 1 .183.01 98.078 98.078 0 0 0 .864 14.761c.355 2.351 1.539 5.89-.92 6.252-2.5.368-4.124-5.56-4.43-7.183a54.133 54.133 0 0 1 -.53-13.99z" fill="#263238" transform="translate(-118.64 -97.948)"/><path d="m317.243 229.342a15.322 15.322 0 0 1 .637 1.874 4.254 4.254 0 0 1 .266 1.54c-.011.1-.143.11-.2.042a5.428 5.428 0 0 1 -.659-1.5c-.216-.579-.444-1.155-.643-1.74a.317.317 0 0 1 .599-.216z" fill="#263238" transform="translate(-120.74 -107.511)"/><path d="m343.1 213.583c-3.751-.246-43.364-4.785-43.364-4.785l.308-16.161h2.718a.108.108 0 0 1 -.007-.027h36.445l3.587 18.981z" fill="#263238" transform="translate(-115.413 -95.985)"/><path d="m299.29 135.913c-4.533 14.189-12.21 28.828-14.425 31.712-5.95 7.745-23.82 15.377-29.279 16.362-2.356.425-8.019-14.8-6.553-16.9s23.674-10.58 24.761-11.71c.756-.785 10.128-12.861 16.451-20.145 7.855-9.055 10.236-3.045 9.045.681z" fill="#ad6359" transform="translate(-99.339 -76.384)"/><path d="m256.071 163.817 8.772 17.816s18.656-8.087 23.1-13.859 12.493-25.33 13.7-31.552-.873-10.68-9.219-1.575-15.254 18.172-16.751 19.69-19.602 9.48-19.602 9.48z" fill="#ebebeb" transform="translate(-101.635 -76.066)"/><path d="m257.153 162.745 10.515 18.438s16.419-7.853 20.615-13.032 11.1-20.981 13.259-29.521.9-14.6-8.777-4.15-15.137 18.04-17.129 19.747c-.92.789-18.483 8.518-18.483 8.518z" fill="#37474f" transform="translate(-101.976 -75.901)"/><circle cx="159.602" cy="87.584" fill="#263238" r=".967"/><circle cx="164.155" cy="85.489" fill="#263238" r=".967"/><path d="m311.362 138.629c-2.163 8.543-9.063 24.341-13.259 29.523-1.793 2.211-5.8 4.908-9.823 7.276l21.172-46.369c3.265-.889 3.381 3.765 1.91 9.57z" fill="#263238" transform="translate(-111.797 -75.901)"/><path d="m344.029 185.668c-.11.123-47.464.267-47.9-.219-.6-.685 10.09-51.988 14.95-58.327 1.04-1.355 4.47-1.732 7.386-1.369a13 13 0 0 1 2.245.459.364.364 0 0 0 .075.021 5.37 5.37 0 0 1 1.65.808c8.111 6.475 14.937 29.111 16.531 35.908 2.647 11.197 5.453 22.274 5.063 22.719z" fill="#ebebeb" transform="translate(-114.266 -74.851)"/><path d="m332.148 126.778s-3.858 21.018-4.529 26.481.315 34.309.315 34.309l29.736 2.2s-6.423-19.1-6.5-20.312c0 0-5.345-22.877-10.344-32.433a34.156 34.156 0 0 0 -8.678-10.245z" fill="#37474f" transform="translate(-124.134 -75.215)"/><path d="m360.979 190.737-13.485-1-9.624-59.874v-.014l.027.041 6.037 7.735c.068.123.137.246.2.37 5 9.556 10.343 32.432 10.343 32.432.074 1.212 6.502 20.31 6.502 20.31z" fill="#263238" transform="translate(-127.442 -76.184)"/><path d="m310.131 127.453s-3.158 21.277-3.5 23.041-5.121 36.46-5.121 36.46l-7.436.233 3.877-15.866s8.636-39.338 12.18-43.868z" fill="#37474f" transform="translate(-113.624 -75.428)"/><path d="m321.656 142.619-2.11-4.108-2.721 2.972.666 2.957 2.688.346z" fill="#263238" transform="translate(-120.802 -78.917)"/><path d="m318.351 147.517 1.286 30.218-5.664 9.993-2.94-11.247 4.63-29.31z" fill="#263238" transform="translate(-118.975 -81.65)"/><path d="m0 0h35.483v58.569h-35.483z" fill="#ffc727" transform="matrix(.001 -1 1 .001 198.141 184.858)"/><path d="m0 0h16.71v58.569h-16.71z" opacity=".1" transform="matrix(.001 -1 1 .001 198.16 166.085)"/><path d="m0 0h61.339v16.561h-61.339z" fill="#ffc727" transform="matrix(-1 -.001 .001 -1 258.123 160.781)"/><path d="m343.911 248.275-.01 9.446h4.442l.005-5.373 16.942.017-.005 5.373h4.443l.01-9.446z" fill="#263238" transform="translate(-129.344 -113.546)"/><path d="m0 0h3.998v7.91h-3.998z" fill="#263238" transform="matrix(-.99999949 -.00101229 .00101229 -.99999949 249.7 164.728)"/><path d="m0 0h3.998v7.91h-3.998z" fill="#263238" transform="matrix(-1 -.001 .001 -1 209.197 164.686)"/><path d="m341.664 135.152c13.208 11.984 21.6 29.106 22.158 32.56 1.362 8.357 3.1 23 2.809 29.436-.11 2.378-18.159-.511-18.122-3.056.116-7.97-.948-25.49-.995-25.8-.324-2.145-4.251-11.778-8.224-22.219s-3.19-15.965 2.374-10.921z" fill="#ad6359" transform="translate(-127.104 -77.261)"/><path d="m349.635 247.09a2.837 2.837 0 0 0 3.184-.587 4.208 4.208 0 0 0 2.237 1.784c1.666.476 3.145-1.926 3.145-1.926a5.186 5.186 0 0 0 2.659 1.5c1.64.3 3.478-1.916 3.478-1.916a4.6 4.6 0 0 0 3.172-.15c1.7-.8 3.149-5.686 3.5-8.5s-1.278-11.128-1.429-12.743l-18.042-2.427s-5.177 12.168-5.123 15.536c.049 2.839 1.239 8.439 3.219 9.429z" fill="#ad6359" transform="translate(-130.137 -105.298)"/><path d="m355.078 253.259c-.772-3.005-.613-6.074-.629-9.147a.053.053 0 0 1 .106 0c-.02 3.056.567 6.077.669 9.128a.075.075 0 0 1 -.146.019z" fill="#263238" transform="translate(-132.67 -112.218)"/><path d="m363.253 253.3a8.064 8.064 0 0 1 -.051-2.114q.05-1.123.138-2.244c.117-1.5.267-2.99.461-4.478.009-.066.112-.069.107 0-.114 1.491-.2 2.984-.255 4.479q-.038 1.122-.058 2.245a9.6 9.6 0 0 1 -.137 2.112.107.107 0 0 1 -.205 0z" fill="#263238" transform="translate(-135.418 -112.33)"/><path d="m372.569 253.107a5.616 5.616 0 0 1 .056-1.906q.1-1.021.19-2.043c.12-1.362.238-2.724.31-4.09 0-.068.11-.068.106 0-.066 1.388-.113 2.777-.191 4.164q-.057 1.023-.127 2.043a5.288 5.288 0 0 1 -.277 1.84.038.038 0 0 1 -.067-.008z" fill="#263238" transform="translate(-138.366 -112.519)"/><path d="m346.788 192.881 20.008 1.082s-1.476-21.908-3.061-27.99-15.147-26.362-23.144-33.718c-7.523-6.92-7.51-1.165-4.676 6.946s9.915 27.722 10.157 29.153.716 24.527.716 24.527z" fill="#37474f" transform="translate(-126.272 -75.968)"/><path d="m353.9 216.337c.763-.072 1.539 0 2.3 0s1.535.032 2.3.066c1.478.065 2.956.151 4.432.246s2.954.192 4.43.292c1.526.1 3.085.133 4.6.357a.053.053 0 0 1 0 .107c-1.526.062-3.08-.074-4.606-.135q-2.259-.089-4.519-.185c-1.506-.066-3.013-.14-4.517-.234-.74-.047-1.477-.1-2.214-.179s-1.495-.088-2.225-.237c-.063-.011-.036-.093.019-.098z" fill="#263238" transform="translate(-132.481 -103.46)"/><path d="m319.922 129.533c.782-.031 5.964-4.085 7.558-7.243.108-.217-.293-2.447-.652-5.18-.211-1.66-.408-3.512-.465-5.216-.01-.35-1.179.333-1.179.333l-2.187.606-7.231 2.014a27.153 27.153 0 0 1 1.251 6.506 3.853 3.853 0 0 1 -.05.7c0 .032-.011.071-.012.116-.171 1.337 1.689 7.415 2.967 7.364z" fill="#ad6359" transform="translate(-120.468 -70.488)"/><path d="m316.968 122.433c0 .032-.011.071-.012.116a6.717 6.717 0 0 0 1.1.021c7.189-.4 7.782-9.578 7.782-9.578l-2.839.218-7.231 2.014a27.153 27.153 0 0 1 1.251 6.506 3.853 3.853 0 0 1 -.051.703z" fill="#263238" transform="translate(-120.468 -70.866)"/><path d="m327.727 120.91s0 0 0 0" fill="none" stroke="#f4a69d" stroke-linecap="round" stroke-linejoin="round" transform="translate(-124.241 -73.363)"/><path d="m323.161 88.63c1.726 3.567 1.433 14.694-.856 17.522-3.317 4.1-9.588 5.417-13.282 1.238-3.581-4.052-2.942-18.546-.307-21.2 3.884-3.913 11.895-2.829 14.445 2.44z" fill="#ad6359" transform="translate(-117.556 -61.669)"/><path d="m316.848 102.7c.006-.028.057.037.056.068-.04.749.04 1.613.713 1.877.021.008.018.046-.008.042-.824-.138-.919-1.287-.761-1.987z" fill="#263238" transform="translate(-120.789 -67.615)"/><path d="m317.543 101.577c1.207-.066 1.25 2.354.131 2.415-1.101.06-1.143-2.36-.131-2.415z" fill="#263238" transform="translate(-120.799 -67.264)"/><path d="m310.175 102.988c-.006-.029-.058.036-.057.067.037.749-.047 1.613-.72 1.874-.021.008-.018.046.007.042.826-.131.926-1.28.77-1.983z" fill="#263238" transform="translate(-118.454 -67.708)"/><path d="m309.107 101.863c-1.207-.071-1.259 2.349-.141 2.414 1.101.065 1.153-2.355.141-2.414z" fill="#263238" transform="translate(-118.069 -67.355)"/><path d="m318.362 99.158a9.639 9.639 0 0 1 -.943-.313 1.605 1.605 0 0 1 -.9-.5.512.512 0 0 1 .072-.621 1.268 1.268 0 0 1 1.277-.153 1.865 1.865 0 0 1 1.088.788.546.546 0 0 1 -.594.799z" fill="#263238" transform="translate(-120.681 -65.968)"/><path d="m307.844 99.354a9.62 9.62 0 0 0 .957-.266 1.612 1.612 0 0 0 .925-.458.511.511 0 0 0 -.04-.624 1.269 1.269 0 0 0 -1.268-.217 1.868 1.868 0 0 0 -1.126.732.546.546 0 0 0 .552.833z" fill="#263238" transform="translate(-117.763 -66.047)"/><path d="m317.391 112.841c-.177.179-.352.424-.623.451a1.967 1.967 0 0 1 -.809-.175.026.026 0 0 0 -.032.039 1.009 1.009 0 0 0 .959.39.8.8 0 0 0 .578-.673c.01-.043-.048-.058-.073-.032z" fill="#263238" transform="translate(-120.517 -70.814)"/><path d="m314.859 105.866a2.549 2.549 0 0 1 -1.684 1.166 3.211 3.211 0 0 1 -.917.058.862.862 0 0 1 -.176-.017c-.055-.005-.1-.011-.164-.022a.186.186 0 0 1 -.153-.166v-.005a.364.364 0 0 1 .005-.077v-.071c-.026-.577.015-1.456.015-1.456-.209.11-1.276.612-1.264.31a38.482 38.482 0 0 1 .854-7.742.07.07 0 0 1 .138.017c-.006 2.405-.435 4.794-.48 7.211a4.452 4.452 0 0 1 1.2-.387c.082.023-.109 1.7-.077 1.956a.1.1 0 0 0 .005.027 3.541 3.541 0 0 0 2.628-.867c.054-.045.111.004.07.065z" fill="#263238" transform="translate(-118.813 -66.07)"/><path d="m313.549 110.5a3.027 3.027 0 0 0 1.229.919 1.367 1.367 0 0 0 .828.037c.6-.168.6-.717.483-1.186a3.255 3.255 0 0 0 -.281-.715 3.925 3.925 0 0 1 -2.259.945z" fill="#263238" transform="translate(-119.768 -69.783)"/><path d="m315.344 111.753a1.367 1.367 0 0 0 .828.037c.6-.168.6-.717.483-1.186a1.407 1.407 0 0 0 -1.311 1.149z" fill="#eb9481" transform="translate(-120.334 -70.112)"/><path d="m307.481 89.7c.392-.959.848-1.926 1.417-2.125s.972 1.189 2.276 1.252c1.761.086 2.582-1.546 5.037-1.764 3.527-.313 5.139 2.608 5.32 7.618.161 4.475 2.874 4.844 2.874 4.844s1.451-9.9-1.394-13.117-9.255-4.538-13.482-1.338c-1.541 1.166-2.048 4.63-2.048 4.63z" fill="#263238" transform="translate(-117.854 -61.477)"/><path d="m328.758 103.02s1.98-3.841 3.69-3.181.553 6-1.223 6.944a1.919 1.919 0 0 1 -2.685-.678z" fill="#ad6359" transform="translate(-124.498 -66.693)"/><path d="m332.539 102.1a.026.026 0 0 1 .017.049 4.85 4.85 0 0 0 -2.078 3.342 1.059 1.059 0 0 1 1.531-.5c.038.02.012.078-.026.075a1.179 1.179 0 0 0 -1.231.583 5.629 5.629 0 0 0 -.476 1.124c-.046.125-.266.092-.24-.049l.007-.032c-.258-1.671.725-4.186 2.496-4.592z" fill="#263238" transform="translate(-124.96 -67.428)"/><path d="m316.813 126.392 2.584 6.339 7.829-8.006 2.229 2.559s-7.648 12.709-7.7 12.136l-2.614-5.437-3.749 3.794.285-9.507z" fill="#ebebeb" transform="translate(-120.351 -74.568)"/><path d="m315.155 134.521c.1-1.568.156-3.151.328-4.712.006-.055.093-.081.107-.015.318 1.513-.1 7.508-.086 8.945l.016-.016c.157-.164 3.475-3.34 3.508-3.289.566.862 2.484 4.822 2.616 5.182 1.21-2.019 5.846-9.359 7.278-11.268a.055.055 0 0 1 .094.055c-1.068 2.131-7.2 12.015-7.3 11.987a61.355 61.355 0 0 1 -2.733-5.749 41.391 41.391 0 0 1 -3.922 4.041 49.358 49.358 0 0 1 .094-5.161z" fill="#263238" transform="translate(-120.236 -76.019)"/><path d="m186.265 136.218c8.611 17 17.362 57.886 18.179 63.355.555 3.712-18.99 7.078-18.99 4.5 0-3.3-3.943-41.893-3.569-57.144.207-8.409 2.601-14.224 4.38-10.711z" fill="#eb9481" transform="translate(-78.222 -77.865)"/><path d="m186.955 232c-.316 2.238.43 9.992 1.9 15.772.713 2.805 3.614 10.641 5.809 10.259s1.55-2.748 1.55-2.748 1.721 3.128 3.895 2.542 1.049-4.234 1.049-4.234 2 3.082 4.128 2.343.381-4.218.381-4.218 1.7 2.9 3.195 1.557c1.8-1.62-1.937-6.621-2.57-9.761-.144-.714-1.883-14.664-1.883-14.664z" fill="#eb9481" transform="translate(-79.807 -107.418)"/><path d="m212.6 257.391c-2.739-3.684-3.3-5.769-3.645-10.275-.007-.088-.139-.1-.14-.005-.064 4.443.262 7.161 3.614 10.422.16.159.298.033.171-.142z" fill="#263238" transform="translate(-86.723 -113.159)"/><path d="m206 260.158c-2.511-4.074-3.139-6.331-3.848-11.024-.01-.066-.123-.056-.119.012.309 4.661.7 7.365 3.742 11.107.134.169.337.092.225-.095z" fill="#263238" transform="translate(-84.586 -113.804)"/><path d="m198.72 261.755c-2.147-4.12-2.942-6.564-3.045-11.208a.086.086 0 0 0 -.171-.007 15.41 15.41 0 0 0 3.084 11.267c.168.236.267.207.132-.052z" fill="#263238" transform="translate(-82.505 -114.237)"/><path d="m210.036 227.83a56.311 56.311 0 0 1 4.068 7.232c.917 2.42 1.019 12.695-1.2 12.842-2.864.191-4.091-5.729-4.312-8.707 0 0-6.624.448-8.424-3.611s9.868-7.756 9.868-7.756z" fill="#eb9481" transform="translate(-83.938 -107.097)"/><path d="m212.1 251.336c-2.737-1.71-2.776-5.638-3.208-8.511a.265.265 0 0 0 -.382-.211c-2.789 0-6.723-.806-8.408-3.221a.067.067 0 0 0 -.116.068c1.455 2.835 5.256 3.945 8.31 3.747.4 2.953.609 6.89 3.789 8.155a.015.015 0 0 0 .015-.027z" fill="#263238" transform="translate(-83.937 -110.735)"/><path d="m205.666 196.741-22.2 3.416s-3.54-41.214-3.667-55.048c-.127-13.854 4.837-17.224 10.173-3.073s15.694 54.705 15.694 54.705z" fill="#00f" transform="translate(-77.571 -77.158)"/><path d="m185 224.662a197.183 197.183 0 0 1 20.645-3.067c.081-.012.091.119.009.127-1.689.164-12.854 2.263-20.643 3.08-.089.01-.096-.12-.011-.14z" fill="#263238" transform="translate(-79.194 -105.13)"/><path d="m204.269 400.676c-.653.212-19.765-.077-20.467-.537a31.96 31.96 0 0 1 -.072-4.147l-.931-14.066 12.094.036.955 12.185s2.713 1.252 4.951 2.346c0 0 .006 0 .006.006a26.894 26.894 0 0 1 2.85 1.508c.714.583 1.266 2.461.614 2.669z" fill="#eb9481" transform="translate(-59.882 -135.713)"/><path d="m206.522 435.145c-.653.212-19.765-.077-20.467-.537a31.953 31.953 0 0 1 -.072-4.148c4.722 1.053 17.31 2.757 17.679 1.766.146-.394-.154-.845-.6-1.26a26.886 26.886 0 0 1 2.85 1.508c.711.585 1.263 2.463.61 2.671z" fill="#263238" transform="translate(-62.135 -170.182)"/><path d="m165.176 205.3s9.337 73.271 9.532 74.313c.029.138 2.122 6.375 2.2 8.957 8.433 18.58 19.627 66.254 19.627 66.254h12.575s-2.214-52.308-3.487-64.512c-1.623-15.566-11.592-85.012-11.592-85.012z" fill="#37474f" transform="translate(-72.958 -99.989)"/><path d="m185.15 277.339a314.045 314.045 0 0 0 -7.945-40.084c-2.005-7.51-4.419-14.994-6.818-22.481-.021-.065-.251-.063-.229 0a338.866 338.866 0 0 1 10.249 40.168 379.637 379.637 0 0 1 5.806 40.263c.7 7.616 1.221 15.234 1.773 22.852.013.182.642.175.631-.007-.807-13.575-1.681-27.15-3.467-40.711z" fill="#263238" transform="matrix(.985 -.174 .174 .985 -118.213 -30.99)"/><path d="m191.428 415.572a3.045 3.045 0 0 0 -.874-.111c-.323-.035-.647-.043-.97-.082-.623-.076-1.246-.125-1.87-.157a25.148 25.148 0 0 0 -3.771.083c-.346.034-.691.077-1.037.116a8.6 8.6 0 0 1 -1.106.143c-.028 0-.027.1 0 .1a15.647 15.647 0 0 1 1.906.245c.623.071 1.246.107 1.87.134a23.7 23.7 0 0 0 3.771-.126c.346-.04.691-.055 1.037-.089.185-.018.369-.051.553-.073a1.763 1.763 0 0 0 .492-.051c.029-.004.027-.121-.001-.132z" fill="#263238" transform="translate(-57.371 -166.206)"/><path d="m185.429 205.3-12.8 84.705c-.181-6.316-.362-12.154-.481-15.623-.062-1.955-.113-3.158-.136-3.262-.158-.788-6.831-65.821-6.831-65.821z" fill="#263238" transform="translate(-68.696 -99.989)"/><path d="m128.544 392.706c-.7-.058-18.73-7.887-19.214-8.6a32.78 32.78 0 0 1 1.571-3.965l3.975-14.011 11.5 4.617-3.243 12.434s2.08 2.261 3.772 4.184v.007a27.776 27.776 0 0 1 2.109 2.558c.449.835.231 2.835-.47 2.776z" fill="#eb9481" transform="matrix(.985 .174 -.174 .985 10.467162 -143.310804)"/><path d="m128.544 425.715c-.7-.058-18.73-7.887-19.214-8.6a32.782 32.782 0 0 1 1.571-3.965c4.066 2.866 15.34 9.46 16.082 8.666.295-.316.188-.863-.075-1.435a27.78 27.78 0 0 1 2.109 2.558c.446.836.228 2.836-.473 2.776z" fill="#263238" transform="matrix(.985 .174 -.174 .985 16.210902 -175.825654)"/><path d="m110.267 344.264 15.823 5.052s33.456-51.5 34.7-64.83c1.228-13.2 2.412-40.181 2.937-59.752 0 0 5.534-3.275 6.932-5.06 1.33-1.7 2.668-8.229 5.432-14.373h-40.514c-9.683 18.8-2.4 27.168-2.4 31.27 0 19.8-3 46.075-3.946 49.964-1.982 8.137-18.964 57.729-18.964 57.729z" fill="#37474f" transform="translate(-55.635 -99.989)"/><path d="m129.846 406.2a12.125 12.125 0 0 0 -1.278-.517c-.473-.187-.951-.358-1.424-.548q-1.368-.549-2.746-1.056c-1.849-.685-3.714-1.318-5.586-1.887-.516-.157-1.032-.308-1.548-.462-.549-.163-1.109-.288-1.653-.481-.041-.015-.052.05-.011.064.936.321 1.86.759 2.787 1.128s1.83.7 2.748 1.042c1.85.679 3.718 1.3 5.591 1.86.516.153 1.03.322 1.545.479.275.084.551.158.827.239a6.8 6.8 0 0 0 .734.221c.043.013.053-.058.014-.082z" fill="#263238" transform="translate(-57.309 -161.81)"/><path d="m194.919 225.671a30.267 30.267 0 0 0 -5.493 3.243c-1.817 1.242-3.483 2.678-5.232 4.01-.068.051 0 .162.071.114 1.843-1.176 3.773-2.211 5.6-3.423a35.688 35.688 0 0 0 5.147-3.8c.056-.058-.012-.177-.093-.144z" fill="#263238" transform="translate(-78.949 -106.414)"/><path d="m197.262 209.006c-.234 1.262-.541 2.509-.813 3.763-.255 1.176-.444 2.377-.754 3.539a6.025 6.025 0 0 1 -1.649 2.967c-.461.429-.969.808-1.461 1.2-.266.212-.552.415-.828.63.036-.166.064-.336.094-.508.084-.478.165-.956.246-1.435q.267-1.593.511-3.191c.32-2.093.615-4.208 1.051-6.28a.067.067 0 0 0 -.131-.032c-.521 2.053-1.1 4.084-1.551 6.155-.222 1.015-1.017 6.029-1.052 6.384s-.067.734-.08 1.1a4.4 4.4 0 0 0 0 1.126c.022.091.132.077.171.014a4.419 4.419 0 0 0 .319-1.09c.092-.357.173-.721.238-1.085.023-.131.041-.266.06-.4.494-.3.954-.7 1.415-1.031.5-.361 1-.711 1.475-1.108a5.647 5.647 0 0 0 1.8-2.814 20.388 20.388 0 0 0 .591-3.6c.159-1.424.276-2.857.475-4.276.011-.079-.111-.114-.127-.028z" fill="#263238" transform="translate(-81.043 -101.142)"/><path d="m182.351 115.209a159.9 159.9 0 0 1 -3.337 24.169c-1.462 6.121-4.77 10.875-11.429 11.515-6.176.591-14.684-.684-19.2-5.344a8.352 8.352 0 0 1 -2.009-7.8c.773-4.036 7.047-25.858 8.961-32.67a73.029 73.029 0 0 1 4.2-12.264c3.958-8.194 8.191-7.541 8.8-7.633.553-.255 4.008-1.261 8.439.85a9.124 9.124 0 0 1 4.833 5.655c2.391 7.341 1.347 15.988.742 23.522z" fill="#263238" transform="translate(-66.957 -61.947)"/><path d="m166.255 86.868c-5.429 1.686-7.408 7.09-9.328 11.915-2.672 6.715-5.23 13.478-7.458 20.355-1.071 3.307-2.068 6.638-2.965 10-.858 3.214-1.975 6.616-2.208 9.951-.384 5.512 4.273 8.682 9.01 10.124a.188.188 0 0 0 .12-.355c-2.683-.924-5.393-2.076-7.166-4.4-2.273-2.985-1.5-6.367-.719-9.735 1.325-5.732 2.975-11.385 4.826-16.968s3.906-11.113 6.043-16.6c2.034-5.223 3.948-12.2 9.865-14.188.055-.027.037-.117-.02-.099z" fill="#263238" transform="translate(-66.364 -62.624)"/><path d="m196.03 99.057c-.4-4.307-2.008-8.673-6.238-10.487-.008 0-.012.009 0 .012 5.433 2.588 5.966 8.986 6.013 14.276q.074 8.35-.474 16.688c-.346 5.343-.807 10.714-1.637 16.006-.9 5.712-2.668 10.934-6.7 15.19-.084.088.033.225.127.142 3.854-3.361 5.677-8.47 6.619-13.357a149.724 149.724 0 0 0 2.1-19.624 127.176 127.176 0 0 0 .19-18.846z" fill="#263238" transform="translate(-79.832 -63.161)"/><path d="m175.71 125.171c.258.689 4.249 4.861 7.478 4.288 1.051-.189.277-5.972.277-5.972l.041-.44.561-6.159-7.617-3.6-1.094-.465s-.042 1.7-.074 3.807v.3s-.011.232-.01.343c-.01.316-.017.638-.018.959v.738s.007.508.008.765a39.8 39.8 0 0 0 .448 5.436z" fill="#eb9481" transform="translate(-76.135 -70.813)"/><path d="m175.3 116.63a12.4 12.4 0 0 0 8.223 6.417l.561-6.159-7.617-3.6-1.094-.465s-.044 1.696-.073 3.807z" fill="#263238" transform="translate(-76.151 -70.813)"/><path d="m190.522 99.655c.86 10.821-5.523 12.558-7.857 12.741-2.118.166-9.352.463-11.327-10.211s2.785-14.5 7.609-15.132 10.714 1.781 11.575 12.602z" fill="#eb9481" transform="translate(-74.758 -62.654)"/><g fill="#263238"><path d="m196.2 101.605a7.057 7.057 0 0 1 -.735-.148 1.208 1.208 0 0 1 -.721-.294.386.386 0 0 1 0-.471.957.957 0 0 1 .942-.233 1.408 1.408 0 0 1 .888.489.412.412 0 0 1 -.374.657z" transform="translate(-82.261 -66.904)"/><path d="m186.171 101.824a7.2 7.2 0 0 0 .732-.162 1.21 1.21 0 0 0 .715-.307.386.386 0 0 0 -.005-.471.956.956 0 0 0 -.946-.215 1.405 1.405 0 0 0 -.878.506.412.412 0 0 0 .382.649z" transform="translate(-79.435 -66.968)"/><path d="m188.518 106.354c-.007-.028-.057.036-.055.067.048.738-.022 1.591-.682 1.858-.02.009-.017.045.008.041.811-.141.893-1.275.729-1.966z" transform="translate(-80.086 -68.77)"/><path d="m187.443 105.261c-1.191-.051-1.205 2.335-.1 2.382 1.083.047 1.098-2.343.1-2.382z" transform="translate(-79.696 -68.427)"/><path d="m186.53 105.4c-.209.133-.415.371-.667.394-.291.027-.509-.225-.7-.465-.02-.025-.04 0-.041.027-.01.457.163.928.653 1 .446.065.77-.338.887-.8.026-.08-.047-.206-.132-.156z" transform="translate(-79.252 -68.446)"/><path d="m194.83 106.115c.005-.028.057.036.055.066-.034.739.052 1.59.717 1.845.021.008.018.045-.007.042-.814-.127-.916-1.258-.765-1.953z" transform="translate(-82.296 -68.695)"/><path d="m195.509 105c1.19-.073 1.25 2.312.148 2.38-1.085.07-1.145-2.314-.148-2.38z" transform="translate(-82.305 -68.346)"/><path d="m196.513 105.141c.192.122.383.347.609.356.261.011.448-.252.609-.5.016-.026.036-.006.038.025.024.455-.115.934-.551 1.032-.4.09-.7-.294-.821-.745-.023-.087.039-.216.116-.168z" transform="translate(-82.807 -68.339)"/><path d="m188.751 114.894c.168.182.332.429.6.465a1.95 1.95 0 0 0 .8-.145.026.026 0 0 1 .029.04.994.994 0 0 1 -.958.353.786.786 0 0 1 -.546-.682c-.007-.045.05-.058.075-.031z" transform="translate(-80.373 -71.462)"/><path d="m192.088 107.655s.159 1.1.162 1.624c0 .049-.126.073-.3.084-.009 0-.013.006-.021 0a2.474 2.474 0 0 1 -2.409-.911c-.036-.051.029-.1.077-.073a3.732 3.732 0 0 0 2.264.635c.036-.144-.335-1.88-.252-1.887a4.56 4.56 0 0 1 1.184.261c-.264-2.307-.9-4.553-1.123-6.855a.071.071 0 0 1 .136-.034 37.6 37.6 0 0 1 1.524 7.331c.041.298-1.03-.088-1.242-.175z" transform="translate(-80.635 -66.912)"/><path d="m194.491 105.6c-.166-1.763.648-3.288 1.814-3.4s2.251 1.236 2.417 3-.648 3.287-1.815 3.4-2.25-1.234-2.416-3zm.428-.04c.144 1.527 1.017 2.7 1.947 2.611s1.57-1.4 1.427-2.928-1.018-2.7-1.948-2.611-1.569 1.403-1.425 2.93z" transform="translate(-82.2 -67.462)"/><path d="m182.748 106.668a3.007 3.007 0 1 1 3.288 2.917 3.115 3.115 0 0 1 -3.288-2.917zm.429-.04a2.577 2.577 0 1 0 2.3-3.01 2.685 2.685 0 0 0 -2.301 3.009z" transform="translate(-78.497 -67.77)"/><path d="m191.149 106.671c1.548-.713 2.32-.257 2.327-.252l.233-.363c-.037-.025-.956-.6-2.741.224z" transform="translate(-81.095 -68.61)"/><path d="m178.335 107.37.039-.429c-.283-.025-6.923-.615-7.638-.588a7.87 7.87 0 0 0 -2.589 1.3l.246.353a8.22 8.22 0 0 1 2.328-1.22h.032c.547-.024 5.2.373 7.582.584z" transform="translate(-73.895 -68.772)"/><path d="m170.778 100.7c1.174-.071 4.23-3.3 4.321-8.971 0 0-.434 5.085-.817 5.831s1.709-1.818 1.846-6.39a18.5 18.5 0 0 0 4.692 2.431c2.16.6 3.481.583 3.635.427s-3.023-1.156-3.883-2.147c0 0 5.745 2.668 8.392 2.869.307.023.669-6.275-3.424-8.946s-10.577.218-12.319 1.9c0 0-2.047.292-4.271 3.321s.564 9.753 1.828 9.675z" transform="translate(-73.886 -61.947)"/></g><path d="m172.093 108.971s-2.345-3.405-3.889-2.572.2 5.758 2 6.443a1.835 1.835 0 0 0 2.466-.969z" fill="#eb9481" transform="translate(-73.726 -68.745)"/><path d="m169.249 108.5a.025.025 0 0 0 -.01.048 4.643 4.643 0 0 1 2.377 2.92 1.013 1.013 0 0 0 -1.514-.287c-.034.023 0 .075.034.068a1.129 1.129 0 0 1 1.24.4 5.434 5.434 0 0 1 .588 1.009c.059.114.264.055.221-.076l-.01-.029c.044-1.607-1.195-3.874-2.926-4.053z" fill="#263238" transform="translate(-74.235 -69.45)"/><path d="m172.878 115.148a.791.791 0 1 1 -.791-.791.791.791 0 0 1 .791.791z" fill="#fff" transform="translate(-74.889 -71.297)"/><path d="m188.006 183.726s-36.457.541-45.506-.1c0 0 7.379-41.823 17.113-52.392a14.825 14.825 0 0 1 1.15-1.129c.6-.5.513-4.49.794-4.764s12.109 1.253 12.26 1.54.76 4.052.76 4.052c2.683 3.416 11.315 15.251 12.335 20.131s-2.163 10.288-2.163 10.288z" fill="#00f" transform="translate(-65.804 -74.753)"/><path d="m162.984 142.558c-2.151 10.394-.875 32.892 4.132 36.98 8.232 6.722 27.955 8.688 33.464 9.339 2.378.281 7.1-15.263 5.512-17.269s-25.9-5.131-27.053-6.192c-.8-.738-4.571-14.31-7.825-21.962-4.398-10.344-7.437-4.727-8.23-.896z" fill="#eb9481" transform="translate(-71.95 -78.615)"/><path d="m217.956 185.44s7.282-.072 12.047.1c2.658.1 7.2.675 9.12 1.641 2.872 1.444 13.957 9.32 12.106 12.049-1.676 2.47-4.978-.781-4.978-.781s3.942 3.214 1.527 5.154c-2.438 1.957-6.326-2.7-6.326-2.7s4.422 3.123 1.646 4.947c-2.409 1.584-7.47-3.289-7.47-3.289s5 2.768 2.692 4.632c-2.552 2.06-11.058-4.293-11.058-4.293a34.19 34.19 0 0 1 -14.408.632c-.822-.132 5.102-18.092 5.102-18.092z" fill="#eb9481" transform="translate(-87.975 -93.719)"/><path d="m252.988 206.7c-.321-.353-.651-.7-.973-1.049a23.386 23.386 0 0 0 -1.963-1.97c-.685-.591-1.394-1.149-2.123-1.688-.768-.569-1.6-1.062-2.353-1.648a.053.053 0 1 0 -.062.086 24.757 24.757 0 0 1 2.149 1.843c.69.616 1.372 1.242 2.054 1.868.667.613 1.369 1.175 2.052 1.767.341.3.668.606 1 .915a7.591 7.591 0 0 0 .952.866c.035.023.073-.024.053-.056a5.851 5.851 0 0 0 -.786-.934z" fill="#263238" transform="translate(-98.295 -98.42)"/><path d="m259.253 202.329a37.115 37.115 0 0 0 -3.561-3.739 25.869 25.869 0 0 0 -4.184-3.043.054.054 0 0 0 -.062.086c1.287 1.153 2.594 2.29 3.9 3.426.637.555 3.455 3.166 3.785 3.4.076.059.169-.059.122-.13z" fill="#263238" transform="translate(-100.169 -96.909)"/><path d="m246.971 210.9a36.612 36.612 0 0 0 -3.412-3.455 33.272 33.272 0 0 0 -4.208-2.641c-.055-.024-.112.049-.063.086 1.33.983 2.672 1.941 3.954 2.987.624.51 3 2.686 3.635 3.121.059.038.133-.043.094-.098z" fill="#263238" transform="translate(-96.333 -99.83)"/><path d="m194.818 189.143 8.686-20.25s-23.794-3.941-24.53-4.42-5.074-16.273-7.857-22.473-7.573-9.845-9.418 3.471.83 29.572 3.5 32.95c3.247 4.092 16.101 9.271 29.619 10.722z" fill="#00f" transform="translate(-71.668 -78.255)"/><path d="m182.041 194.662a85.624 85.624 0 0 1 -10.426-4.069c-2.926-1.227-5.911-2.731-7.519-5.607a16.249 16.249 0 0 1 -1.569-4.645c-.376-1.806-.668-3.633-.943-5.458q-.475-3.148-.846-6.309-.191-1.622-.357-3.248c-.11-1.086-.31-2.162-.352-3.253 0-.069-.112-.066-.107 0 .077 1 .027 2.006.077 3.008.033.66.085 1.318.134 1.978-.066-.141-.133-.281-.2-.424a7.8 7.8 0 0 1 -.476-1.486c-.014-.066-.118-.036-.1.031.12.514.245 1.032.39 1.54.071.25.152.5.242.739.059.157.125.328.2.489.162 1.962.379 3.917.637 5.868.25 1.887.549 3.77.884 5.643a21.792 21.792 0 0 0 1.31 4.839 10.379 10.379 0 0 0 2.783 3.814 18.183 18.183 0 0 0 4.106 2.541 71.828 71.828 0 0 0 10.313 3.851c4.197 1.243 5.503 1.156 1.819.158z" fill="#263238" transform="translate(-71.123 -86.336)"/><path d="m197.453 173.059c-.876-.116-11.233-2.292-11.607-2.4a1.231 1.231 0 0 1 -.832-.88c-.316-.838-.6-1.689-.9-2.532-.52-1.448-1.044-2.9-1.584-4.336-.007-.32-.062-.651-.1-.961-.042-.385-.1-.769-.167-1.151-.138-.828-.379-1.64-.489-2.472-.01-.078-.127-.057-.1.017a12.652 12.652 0 0 1 .37 2.49c.031.329.053.659.076.988-.321-.839-.641-1.679-.975-2.514-.389-.973-.838-1.954-1.149-2.954-.021-.066-.128-.033-.1.031.355.892.6 1.848.886 2.766s.583 1.847.882 2.767c.591 1.816 1.217 3.619 1.845 5.422.3.873.6 1.751.919 2.617a1.875 1.875 0 0 0 1.34 1.321c1.8.484 10.6 1.945 11.668 1.984.108.001.131-.188.017-.203z" fill="#263238" transform="translate(-77.599 -84.535)"/><path d="m213.275 184.292c-1.35 2.913-2.757 5.8-3.977 8.769a90.687 90.687 0 0 0 -3.277 8.952.054.054 0 0 0 .1.038c1.385-2.854 2.568-5.821 3.779-8.754 1.22-2.956 2.318-5.959 3.544-8.912.045-.112-.117-.206-.169-.093z" fill="#263238" transform="translate(-85.843 -93.345)"/><path d="m248.005 180.881c-1.046.592-7.043-1.065-9.47.75-1.614 1.207-3.187 4.1-3.529 7.894-.352 3.913 2.748 3.713 3.884 2.025a48.907 48.907 0 0 0 3.635-6.866 25.757 25.757 0 0 1 3.243.865z" fill="#ad6359" transform="translate(-94.98 -92.243)"/><path d="m239.217 200.717c-1.852-1.947-11.123 5.179-8.192 8.416s10.29-6.21 8.192-8.416z" fill="#ad6359" transform="translate(-93.553 -98.438)"/><path d="m243.74 204.789c-1.852-1.947-11.122 5.179-8.192 8.416s10.289-6.21 8.192-8.416z" fill="#ad6359" transform="translate(-94.98 -99.722)"/><path d="m248.1 206.287c-1.954-1.511-9.387 6.256-6.273 8.79s8.489-7.077 6.273-8.79z" fill="#ad6359" transform="translate(-96.904 -100.238)"/><path d="m253.061 206.932c-2.24-.852-6.951 8.453-3.347 9.928s5.886-8.96 3.347-9.928z" fill="#ad6359" transform="translate(-99.214 -100.486)"/><path d="m240.42 205.546a11.334 11.334 0 0 0 -1.453 1.157c-.5.437-.992.882-1.445 1.366a15.861 15.861 0 0 0 -1.242 1.452c-.4.544-.735 1.143-1.149 1.674a.053.053 0 1 0 .086.062 13.81 13.81 0 0 1 1.317-1.458c.445-.465.868-.954 1.308-1.424s.846-.928 1.283-1.381.932-.89 1.352-1.377a.046.046 0 0 0 -.057-.071z" fill="#263238" transform="translate(-95.024 -100.063)"/><path d="m245.96 206.805c-.4.611-1.789 2.974-2.211 3.569s-.867 1.19-1.318 1.769-.893 1.225-1.4 1.769a.054.054 0 0 0 .077.074c.514-.549 1.073-1.043 1.561-1.617s.933-1.157 1.359-1.768a35.128 35.128 0 0 0 2.038-3.754c.022-.064-.074-.092-.106-.042z" fill="#263238" transform="translate(-96.884 -100.455)"/><path d="m250.914 208.741c-.414.908-.771 1.843-1.189 2.751-.207.448-.415.894-.619 1.343-.1.218-.193.437-.291.654a4.21 4.21 0 0 1 -.342.742c-.042.057.068.118.1.039a5.893 5.893 0 0 1 .476-.769c.122-.2.241-.409.353-.619.233-.436.442-.88.635-1.334a19.437 19.437 0 0 0 1-2.758c.019-.072-.09-.119-.123-.049z" fill="#263238" transform="translate(-99.234 -101.063)"/><path d="m243.849 86.464a16.962 16.962 0 0 1 -28.349 10.736l-8.488 1.246 4.247-7.338a16.968 16.968 0 1 1 32.588-4.639z" fill="#fff" transform="translate(-86.157 -56.586)"/><path d="m243.585 86.4a17.08 17.08 0 0 1 -3.425 8.6 18.875 18.875 0 0 1 -1.537 1.77 19.07 19.07 0 0 1 -1.791 1.516 16.723 16.723 0 0 1 -4.093 2.279 16.911 16.911 0 0 1 -4.568 1.089 16.73 16.73 0 0 1 -2.357.045 14.859 14.859 0 0 1 -2.348-.244 17.121 17.121 0 0 1 -8.393-4.145l.2.062-8.48 1.3-.615.1.311-.543 4.222-7.352-.02.29a17.155 17.155 0 0 1 1.045-15.122 17.359 17.359 0 0 1 5.313-5.658 17.259 17.259 0 0 1 14.913-2.008 17.334 17.334 0 0 1 6.543 4.012 17.068 17.068 0 0 1 5.08 14.009zm0 0a16.783 16.783 0 0 0 -19.24-18.361 16.673 16.673 0 0 0 -7.007 2.767 17.483 17.483 0 0 0 -5.076 5.537 16.756 16.756 0 0 0 -2.153 7.179 16.945 16.945 0 0 0 1.194 7.391l.061.152-.081.138-4.272 7.324-.3-.448 8.5-1.19.118-.016.084.079a16.7 16.7 0 0 0 8.124 4.184 14.544 14.544 0 0 0 2.3.28 16.327 16.327 0 0 0 2.322 0 16.722 16.722 0 0 0 4.531-1 15.8 15.8 0 0 0 4.092-2.206 15.235 15.235 0 0 0 3.335-3.248 17.048 17.048 0 0 0 3.468-8.562z" fill="#263238" transform="translate(-85.894 -56.517)"/><path d="m229.933 97.786-7.247-7.335 2.435-2.405 4.233 4.285 8.795-13.787 2.886 1.84z" fill="#70931b" transform="translate(-91.102 -59.997)"/></svg>