<svg xmlns="http://www.w3.org/2000/svg" width="58.715" height="53.212" viewBox="0 0 58.715 53.212">
  <g id="noun_cleaning_2416811" transform="translate(-0.002 -6)">
    <path id="Path_992" data-name="Path 992" d="M.377,54.225A25.149,25.149,0,0,0,4.538,56.7a16.813,16.813,0,0,0,2.326-1.628,19.7,19.7,0,0,0,4.56-5.353.917.917,0,1,1,1.592.913,21.494,21.494,0,0,1-6.408,6.936,25.946,25.946,0,0,0,4.3,1.174.882.882,0,0,1,.372-.349,19.293,19.293,0,0,0,8.069-9.1A.917.917,0,1,1,21.038,50a21.1,21.1,0,0,1-7.422,9.106c.862.073,1.7.106,2.5.106a29.626,29.626,0,0,0,9.317-1.445.907.907,0,0,0,.5-.44c3.991-7.656,3.734-12.629,2.927-18.817-.5-3.8-2.179-5.179-4.55-5.665v-.711a2.749,2.749,0,0,0-1.376-2.376v-21a2.752,2.752,0,1,0-5.5,0v21a2.749,2.749,0,0,0-1.376,2.376v.583c-4.372.491-5.174,2.67-5.33,4.812C9.882,48.932.969,52.482.593,52.629a.917.917,0,0,0-.216,1.6ZM17.891,32.133a.92.92,0,0,1,.917-.917h2.752a.92.92,0,0,1,.917.917v.5c-.895-.046-1.858-.037-2.862-.023-.509,0-1.046.009-1.6.009-.041,0-.083,0-.124,0Zm-1.376,4.128h5.5a.917.917,0,0,1,0,1.835h-5.5a.917.917,0,1,1,0-1.835Z" transform="translate(0 0)" fill="blue"/>
    <path id="Path_993" data-name="Path 993" d="M113.752,46.5A2.752,2.752,0,1,0,111,43.752,2.752,2.752,0,0,0,113.752,46.5Zm0-3.67a.917.917,0,1,1-.917.917.917.917,0,0,1,.917-.917Z" transform="translate(-60.081 -18.945)" fill="blue"/>
    <circle id="Ellipse_213" data-name="Ellipse 213" cx="3.5" cy="3.5" r="3.5" transform="translate(40 20.211)" fill="blue"/>
    <path id="Path_994" data-name="Path 994" d="M64,56.6a2.746,2.746,0,0,0,1.045,2.064l1.141,2.092c.1.186.22.365.337.545L67.8,77.2a6.455,6.455,0,0,0,6.4,5.909h8.951a6.455,6.455,0,0,0,6.4-5.909l1.216-15.179a10.259,10.259,0,0,0,.77-1.159l1.718-3.431a.908.908,0,0,0,.075-.594,2.737,2.737,0,0,0-2.73-3.087H86.019a2.752,2.752,0,1,0-5.5,0H75.806a3.664,3.664,0,0,0-7.1,0H66.752A2.753,2.753,0,0,0,64,56.415v.014c0,.025,0,.05,0,.076s0,.055,0,.083ZM87.727,77.055a4.611,4.611,0,0,1-4.572,4.221H74.2a4.611,4.611,0,0,1-4.572-4.221l-1.082-13.5A18.151,18.151,0,0,0,79.4,67.514,15.191,15.191,0,0,0,88.765,64.1ZM86.019,55.587h4.587a.917.917,0,1,1,0,1.835H86.019Zm-2.752-2.752a.918.918,0,0,1,.917.917H82.349A.918.918,0,0,1,83.266,52.835ZM79.4,63.844a11.524,11.524,0,0,0,6.621-2.235V59.257h3.134l-.167,2.081A13.023,13.023,0,0,1,79.4,65.679c-3.754,0-8.826-1.985-11.079-5.014l-.113-1.408H71.34v1.827a14.774,14.774,0,0,0,8.058,2.76Zm-7.14-11.009a1.829,1.829,0,0,1,1.58.917H70.677A1.829,1.829,0,0,1,72.257,52.835Zm-5.5,2.752H71.34v1.835H66.752a.917.917,0,1,1,0-1.835Z" transform="translate(-34.641 -24.358)" fill="blue"/>
    <path id="Path_995" data-name="Path 995" d="M88.059,88.755A19.8,19.8,0,0,1,80,86.853v4.655a1.131,1.131,0,0,0,.958,1.068c.189,0,.239.038.473.238a2.383,2.383,0,0,0,3.333,0c.233-.2.283-.238.473-.238s.239.038.473.238a2.384,2.384,0,0,0,3.334,0c.233-.2.284-.238.474-.238s.241.038.474.238a2.387,2.387,0,0,0,3.336,0c.234-.2.284-.238.475-.238a.917.917,0,0,0,.917-.917.907.907,0,0,0-.04-.255V87.322a16.6,16.6,0,0,1-6.621,1.433Z" transform="translate(-43.301 -43.764)" fill="#ffd00d"/>
  </g>
</svg>
