<svg xmlns="http://www.w3.org/2000/svg" width="46.1" height="46.029" viewBox="0 0 46.1 46.029">
  <g id="Group_445" data-name="Group 445" transform="translate(-656.918 167.996)">
    <rect id="Rectangle_267" data-name="Rectangle 267" width="9" height="10" transform="translate(687 -132)" fill="#ffd00d"/>
    <g id="noun_building_construction_3060047" data-name="noun_building construction_3060047" transform="translate(655.018 -169.958)">
      <g id="Group_435" data-name="Group 435" transform="translate(1.9 1.962)">
        <path id="Path_702" data-name="Path 702" d="M54.1,29.078l4.816,4.169V28.719A.773.773,0,0,0,58.2,28H54.819a.773.773,0,0,0-.719.719Z" transform="translate(-16.58 -9.285)" fill="blue"/>
        <path id="Path_703" data-name="Path 703" d="M23.176,46.554H20.013V14.784H47.255a.782.782,0,0,0,.719-.5.682.682,0,0,0-.288-.791L41.72,9.752c-.144-.072-.216-.144-.359-.144h-4.6a.373.373,0,0,0-.288-.144L11.891,1.989h0a.729.729,0,0,0-.719.216L5.278,8.171H3.122A1.26,1.26,0,0,0,1.9,9.393v5.678a1.26,1.26,0,0,0,1.222,1.222H7.506a1.26,1.26,0,0,0,1.222-1.222V9.393A1.26,1.26,0,0,0,7.506,8.171H7.363l3.666-3.738V9.608h-.791v5.175h.791v31.77H2.691a.719.719,0,1,0,0,1.438H23.176a.679.679,0,0,0,.719-.719A.72.72,0,0,0,23.176,46.554ZM12.466,4.721l4.1,4.96h-4.1V4.721Zm0,10.063H12.9l4.6,4.169H12.466Zm0,5.606H17.5l-5.031,4.528Zm0,7.835L17.5,32.753H12.466Zm0,5.966H17.5l-5.031,4.528Zm0,12.363V42.025L17.5,46.554Zm6.11-.934-5.031-4.528h5.031Zm0-5.966H13.544l5.031-4.528Zm0-7.763-5.031-4.528h5.031Zm0-6.038H13.544l5.031-4.528Zm0-7.763-3.594-3.234h3.594ZM18.36,9.68l-4.6-5.535L32.017,9.68Z" transform="translate(-1.9 -1.962)" fill="blue"/>
        <path id="Path_704" data-name="Path 704" d="M56.282,58.713h-.719V45.919a.679.679,0,0,0-.719-.719H36.156a.679.679,0,0,0-.719.719V58.713h-.719a.72.72,0,0,0-.719.719.773.773,0,0,0,.719.719H56.282A.773.773,0,0,0,57,59.432.679.679,0,0,0,56.282,58.713Zm-7.978,0H42.7v-7.26H48.3Z" transform="translate(-10.927 -14.122)" fill="blue"/>
        <path id="Path_705" data-name="Path 705" d="M36.205,35.169a.811.811,0,0,0-.216.791.69.69,0,0,0,.647.5H55.325a.69.69,0,0,0,.647-.5.811.811,0,0,0-.216-.791l-8.985-7.907V24.1h1.15a1.154,1.154,0,0,0,1.15-.934l.288-1.366H42.818l.288,1.366a1.1,1.1,0,0,0,1.15.934h1.078v3.163Z" transform="translate(-11.479 -7.541)" fill="blue"/>
      </g>
    </g>
  </g>
</svg>
