<svg xmlns="http://www.w3.org/2000/svg" width="40.496" height="40.496" viewBox="0 0 40.496 40.496">
  <g id="Group_713" data-name="Group 713" transform="translate(-4582 2422)">
    <rect id="Rectangle_483" data-name="Rectangle 483" width="5" height="11" transform="translate(4600 -2406)" fill="#ffd00d"/>
    <g id="noun_design_2357539" transform="translate(4582 -2422)">
      <g id="Group_712" data-name="Group 712">
        <path id="Path_996" data-name="Path 996" d="M20.248,7.872,12.509,21.929c3.015,2.924,3.728,5.756,3.728,9.393H24.2a11.725,11.725,0,0,1,3.787-9.393ZM25.2,40.5H15.3V32.674h9.9ZM20.248,21.184A1.588,1.588,0,1,0,18.663,19.6,1.586,1.586,0,0,0,20.248,21.184ZM3.5,15.894H4.989A15.335,15.335,0,0,1,11.431,4.4H5.67a3.006,3.006,0,1,1,0-2.787H17.064V0h6.369V1.613H34.826a3.006,3.006,0,1,1,0,2.787H29.061a15.3,15.3,0,0,1,6.446,11.494H37v5.313H31.683V15.894h1.288A12.77,12.77,0,0,0,23.432,4.537V6.369H17.064V4.537A12.77,12.77,0,0,0,7.524,15.894H8.813v5.313H3.5Z" fill="blue" fill-rule="evenodd"/>
      </g>
    </g>
  </g>
</svg>
