<svg xmlns="http://www.w3.org/2000/svg" width="50.734" height="53" viewBox="0 0 50.734 53">
  <g id="noun_digital_marketing_2610403" data-name="noun_digital marketing_2610403" transform="translate(-1.91 -0.5)">
    <g id="Group_732" data-name="Group 732" transform="translate(1.91 0.5)">
      <path id="Path_1012" data-name="Path 1012" d="M49.433.5H5.122A3.216,3.216,0,0,0,1.91,3.712V39.656a3.222,3.222,0,0,0,3.212,3.212H49.433a3.216,3.216,0,0,0,3.212-3.212V3.712A3.211,3.211,0,0,0,49.433.5ZM47.827,37.9H6.728V4.836h41.1Z" transform="translate(-1.91 -0.5)" fill="blue"/>
      <path id="Path_1013" data-name="Path 1013" d="M36.015,55.26H25.793l-1.735,3.317H20.3v5.71H41.508v-5.71H37.742Z" transform="translate(-5.532 -11.286)" fill="blue"/>
      <path id="Path_1014" data-name="Path 1014" d="M12.984,29.615h.463a.786.786,0,0,0,.785-.785V22.1a.786.786,0,0,0-.785-.785h-.463a.786.786,0,0,0-.785.785v6.73A.786.786,0,0,0,12.984,29.615Z" transform="translate(-3.937 -4.6)" fill="#ffd00d"/>
      <path id="Path_1015" data-name="Path 1015" d="M42.084,35.279h.469a.808.808,0,0,0,.807-.807v-21.7a.808.808,0,0,0-.807-.807h-.469a.808.808,0,0,0-.808.807c0,3.435,0,1.2,0,21.7A.808.808,0,0,0,42.084,35.279Z" transform="translate(-9.664 -2.759)" fill="#ffd00d"/>
      <path id="Path_1016" data-name="Path 1016" d="M16.733,26.483l.81.291v3.98A2.018,2.018,0,0,0,19.56,32.77h5.562a2.018,2.018,0,0,0,2.016-2.016v-.535l7.7,2.764V15.756l-18.1,6.5v4.227Zm13-7.818.568,1.5L23.093,22.89l-.568-1.5ZM19.15,27.351l6.382,2.291v1.112a.411.411,0,0,1-.41.41H19.56a.411.411,0,0,1-.41-.41v-3.4Z" transform="translate(-4.83 -3.505)" fill="#ffd00d"/>
      <rect id="Rectangle_494" data-name="Rectangle 494" width="3.781" height="1.606" transform="translate(39.497 20.062)" fill="blue"/>
      <rect id="Rectangle_495" data-name="Rectangle 495" width="6.033" height="1.606" transform="matrix(0.924, 0.383, -0.383, 0.924, 37.781, 22.722)" fill="blue"/>
      <rect id="Rectangle_496" data-name="Rectangle 496" width="1.606" height="6.033" transform="matrix(0.383, 0.924, -0.924, 0.383, 42.74, 15.214)" fill="blue"/>
      <path id="Path_1017" data-name="Path 1017" d="M52.228,12.254h1.606v-.9h.9V9.747h-.9v-.9H52.228v.9h-.9v1.606h.9Z" transform="translate(-11.644 -2.144)" fill="blue"/>
      <path id="Path_1018" data-name="Path 1018" d="M14.51,12.726h1.606v-.9h.9V10.219h-.9v-.9H14.51v.9h-.9v1.606h.9Z" transform="translate(-4.214 -2.237)" fill="blue"/>
      <path id="Path_1019" data-name="Path 1019" d="M15.971,40.8H14.365v.9h-.9v1.606h.9v.9h1.606v-.9h.9V41.7h-.9Z" transform="translate(-4.186 -8.438)" fill="blue"/>
    </g>
  </g>
</svg>
