<svg xmlns="http://www.w3.org/2000/svg" width="47.317" height="50.066" viewBox="0 0 47.317 50.066">
  <g id="Group_446" data-name="Group 446" transform="translate(-803.047 174.033)">
    <g id="noun_fashion_2693030" transform="translate(796.047 -178.033)">
      <rect id="Rectangle_268" data-name="Rectangle 268" width="4" height="3" transform="translate(37.953 40.033)" fill="#ffd00d"/>
      <path id="Path_707" data-name="Path 707" d="M64.271,76.762a.417.417,0,0,1,.417-.417h5.007a.417.417,0,0,1,.417.417v1.527a23.667,23.667,0,0,0,9.829-2.94l-.864-6.268A1.257,1.257,0,0,0,77.836,68H56.546a1.257,1.257,0,0,0-1.24,1.081l-.864,6.268a23.677,23.677,0,0,0,9.829,2.94Z" transform="translate(-27.648 -37.298)" fill="blue"/>
      <path id="Path_708" data-name="Path 708" d="M67.663,19.3,63.36,15H61V17.36l4.3,4.3Z" transform="translate(-31.47 -6.411)" fill="blue"/>
      <path id="Path_709" data-name="Path 709" d="M72.834,55.394a4.565,4.565,0,0,1,4.56-4.56h.059a4.565,4.565,0,0,1,4.56,4.56v1.281h.834V55.382A5.388,5.388,0,0,0,77.466,50h-.083A5.388,5.388,0,0,0,72,55.382v1.293h.834Z" transform="translate(-37.881 -26.808)" fill="blue"/>
      <path id="Path_710" data-name="Path 710" d="M9.3,23.192H24.728l.083-.118c1.12-1.547,2.177-3.008,2.215-9.52v-.024c-1.842-.6-2.857-5.125-2.918-9.531H22.02V5.669a4.6,4.6,0,0,1-4.589,4.589H16.6a4.6,4.6,0,0,1-4.589-4.589V4H9.917a24.218,24.218,0,0,1-.87,6.49c-.53,1.741-1.232,2.78-2.047,3.041v.024c.039,6.509,1.1,7.971,2.214,9.518Z" fill="blue"/>
      <path id="Path_711" data-name="Path 711" d="M77.237,87.758a24.884,24.884,0,0,1-9.952,2.888v1.8a.417.417,0,0,1-.417.417H61.86a.417.417,0,0,1-.417-.417v-1.8a24.9,24.9,0,0,1-9.952-2.888l-1.889,13.7a1.252,1.252,0,0,0,1.24,1.423H77.886a1.252,1.252,0,0,0,1.24-1.423Z" transform="translate(-24.82 -48.812)" fill="blue"/>
      <rect id="Rectangle_269" data-name="Rectangle 269" width="15" height="3" transform="translate(9.953 24.033)" fill="#ffd00d"/>
      <path id="Path_712" data-name="Path 712" d="M24.618,60H9.409A89.506,89.506,0,0,0,7,80.444v.834A1.252,1.252,0,0,0,8.252,82.53H24.318l1.91-13.845A80.218,80.218,0,0,0,24.618,60Z" transform="translate(0 -32.636)" fill="blue"/>
      <path id="Path_713" data-name="Path 713" d="M54.715,11.875a3.4,3.4,0,0,0-4.1-.328q.066.478.148.929a2.571,2.571,0,0,1,3.377.007A.834.834,0,0,1,54.715,11.875Z" transform="translate(-25.415 -4.084)" fill="blue"/>
    </g>
  </g>
</svg>
