<svg id="Google_icon" data-name="Google icon" xmlns="http://www.w3.org/2000/svg" width="21.442" height="21.442" viewBox="0 0 21.442 21.442">
  <path id="Path_81" data-name="Path 81" d="M253.307,198.512a10.693,10.693,0,0,0-.188-2,.628.628,0,0,0-.617-.51h-9.874a.628.628,0,0,0-.628.628V200.4a.628.628,0,0,0,.628.628h5.066a5.625,5.625,0,0,1-1.261,1.66l3.55,3.55A10.64,10.64,0,0,0,253.307,198.512Z" transform="translate(-231.865 -187.791)" fill="#5e8bf2"/>
  <path id="Path_82" data-name="Path 82" d="M53.513,5.025A5.6,5.6,0,0,1,56.9,6.158a.627.627,0,0,0,.821-.058l2.681-2.681a.628.628,0,0,0-.04-.926,10.667,10.667,0,0,0-15.7,2.216L48.35,8.4a5.655,5.655,0,0,1,5.163-3.371Z" transform="translate(-42.793 0)" fill="#bc5747"/>
  <path id="Path_83" data-name="Path 83" d="M53.513,319.9a10.609,10.609,0,0,0,6.391-2.144l-3.617-3.617A5.628,5.628,0,0,1,48.35,311.5l-3.687,3.687A10.677,10.677,0,0,0,53.513,319.9Z" transform="translate(-42.793 -298.455)" fill="#7ba252"/>
  <path id="Path_84" data-name="Path 84" d="M5.117,146.022a4.521,4.521,0,0,1,0-1.81l-3.942-3.942a10.582,10.582,0,0,0,0,9.693Z" transform="translate(0 -134.397)" fill="#e5bc30"/>
</svg>
