<svg xmlns="http://www.w3.org/2000/svg" width="45.643" height="38.869" viewBox="0 0 45.643 38.869">
  <g id="Group_444" data-name="Group 444" transform="translate(-510.07 164.836)">
    <circle id="Ellipse_181" data-name="Ellipse 181" cx="11" cy="11" r="11" transform="translate(522 -153)" fill="#ffd00d"/>
    <g id="noun_Health_Care_239012" data-name="noun_Health Care_239012" transform="translate(503.321 -176.285)">
      <g id="Group_434" data-name="Group 434" transform="translate(6.749 11.449)">
        <g id="Group_433" data-name="Group 433">
          <g id="Group_432" data-name="Group 432">
            <path id="Path_701" data-name="Path 701" d="M6.749,2.318V-23.334a5.8,5.8,0,0,1,5.8-5.8h7.11v-5.219a2.2,2.2,0,0,1,2.2-2.2H37.286a2.205,2.205,0,0,1,2.2,2.2v5.219H46.6a5.8,5.8,0,0,1,5.8,5.8V2.318Zm25.322-6.57v-6.487h6.486v-5H32.071v-6.487h-5v6.487H20.585v5h6.489v6.487Zm4.1-24.878v-3.958H22.976v3.958Z" transform="translate(-6.749 36.551)" fill="blue" fill-rule="evenodd"/>
          </g>
        </g>
      </g>
    </g>
  </g>
</svg>
