<svg xmlns="http://www.w3.org/2000/svg" width="266.308" height="197.193" viewBox="0 0 266.308 197.193">
  <g id="Group_283" data-name="Group 283" transform="translate(-39.212 -235.536)">
    <g id="freepik--background-simple--inject-66" transform="translate(-38.669 160.474)">
      <path id="Path_654" data-name="Path 654" d="M332.9,106.552c19.049,32.921,13.023,74.48-10.792,104.986s-63.422,50.271-105.082,57.439c-29.732,5.138-61.727,4.093-88.894-7.579s-48.533-35.146-50.158-61.4c-.622-9.919,1.8-20.452,9.431-27.87,12.184-11.821,32.99-12.239,51.27-11.754s39.063.121,51.316-11.659c9.408-9.049,10.792-22.179,15.753-33.582,8.428-19.387,28.768-34.526,52.14-38.808a79.013,79.013,0,0,1,9.8-1.146c25.7-1.389,50.088,10.115,63.578,29.118Z" fill="#ebebff"/>
    </g>
    <g id="freepik--Envelope--inject-66" transform="translate(-77.77 102.938)">
      <path id="Path_667" data-name="Path 667" d="M182.55,240.22l133.16-.96,3.71,90.53-137.88-1.28Z" fill="blue"/>
      <path id="Path_668" data-name="Path 668" d="M182.55,240.22l67.6-54.7,65.56,53.74" fill="blue"/>
      <g id="Group_281" data-name="Group 281" opacity="0.3">
        <path id="Path_669" data-name="Path 669" d="M182.55,240.22l67.6-54.7,65.56,53.74"/>
      </g>
      <path id="Path_670" data-name="Path 670" d="M181.54,328.51c-.17-.15,10.49-11.79,23.81-26s24.24-25.59,24.41-25.43-10.49,11.79-23.81,26S181.71,328.67,181.54,328.51Z" fill="#263238"/>
      <path id="Path_671" data-name="Path 671" d="M319.42,329.79c-.17.15-10.55-11.25-23.18-25.47s-22.74-25.87-22.57-26,10.55,11.25,23.18,25.47S319.59,329.64,319.42,329.79Z" fill="#263238"/>
      <g id="Group_282" data-name="Group 282" opacity="0.5">
        <path id="Path_672" data-name="Path 672" d="M315.71,239.26l-66.87,53.42-66.29-52.46"/>
      </g>
      <path id="Path_673" data-name="Path 673" d="M189.26,245.17l-.2-38.73,116.63-2.86,1.27,42.38-58.12,46.02Z" fill="#ebebeb"/>
      <path id="Path_674" data-name="Path 674" d="M250.47,278.06a29.015,29.015,0,1,1,28.77-25.75h0a29,29,0,0,1-28.77,25.75Zm-.08-57a28,28,0,1,0,27.85,31.17h0A28.457,28.457,0,0,0,250.39,221Z" fill="red"/>
      <path id="ic_clear_24px" d="M30.028,7.521,27.507,5l-9.993,9.993L7.521,5,5,7.521l9.993,9.993L5,27.507l2.521,2.521,9.993-9.993,9.993,9.993,2.521-2.521-9.993-9.993Z" transform="translate(231.256 231.548)" fill="red"/>
    </g>
  </g>
</svg>
