<svg xmlns="http://www.w3.org/2000/svg" width="45.055" height="40.867" viewBox="0 0 45.055 40.867">
  <g id="noun_programming_1226560" transform="translate(39.477 204.384)">
    <g id="Group_721" data-name="Group 721" transform="translate(-42.177 -212.784)">
      <path id="Path_997" data-name="Path 997" d="M44.338,8.4h-38C3.765,8.4,2.7,9.465,2.7,12V38.8c0,2.534,1.028,3.6,3.525,3.6H20.361v1.652A2.476,2.476,0,0,1,19.186,46a7.78,7.78,0,0,1-1.469.881,8.626,8.626,0,0,1-1.359.514.864.864,0,0,0-.587.771v.147a.972.972,0,0,0,.955.955H33.69a.972.972,0,0,0,.955-.955v-.037a.9.9,0,0,0-.661-.881,7.436,7.436,0,0,1-1.248-.514A7.78,7.78,0,0,1,31.267,46a2.593,2.593,0,0,1-1.175-1.946V42.4H44.338c2.35,0,3.415-1.1,3.415-3.488V11.741C47.716,9.5,46.615,8.4,44.338,8.4ZM43.163,36.049c-11.933-.037-23.9-.037-35.8-.037-1.212,0-1.285-.037-1.285-1.248V13.8c0-1.4,0-1.4,1.505-1.4H43.017c1.285,0,1.322.037,1.322,1.212,0,6.609,0,14.687.037,21.3C44.375,35.755,44.118,36.049,43.163,36.049Z" fill="blue"/>
      <g id="Group_720" data-name="Group 720" transform="translate(11.026 16.239)">
        <g id="Group_719" data-name="Group 719">
          <g id="Group_717" data-name="Group 717" transform="translate(8.418 2.561)">
            <g id="Group_716" data-name="Group 716">
              <g id="Group_715" data-name="Group 715">
                <path id="Path_998" data-name="Path 998" d="M59.9,41.6a.353.353,0,0,0-.22-.33,3.078,3.078,0,0,1-1.909-3.378.327.327,0,0,0-.184-.4c-.11-.073-.257-.147-.367-.22l-.073-.037c-.184-.11-.4-.257-.624-.367a.344.344,0,0,0-.367-.037c-.037,0-.073.037-.11.073l-.037.037a1.63,1.63,0,0,1-.4.294c-.073.037-.11.073-.184.073a4.631,4.631,0,0,1-1.505.257,2.606,2.606,0,0,1-1.689-.734.34.34,0,0,0-.441-.037c-.367.22-.734.4-1.1.624a.348.348,0,0,0-.184.4,3,3,0,0,1-1.285,2.974c-.037.037-.11.073-.147.11a2.246,2.246,0,0,1-.441.184h-.037c-.037,0-.073.037-.11.037a.386.386,0,0,0-.184.33V42.7a.353.353,0,0,0,.257.367,2.741,2.741,0,0,1,1.505,1.322,2.577,2.577,0,0,1,.33,2.056.317.317,0,0,0,.147.367,12.8,12.8,0,0,0,1.138.661c.037.037.11.037.184.073a.221.221,0,0,0,.147-.037c.037,0,.073-.037.11-.073a3.9,3.9,0,0,1,.4-.33,3.514,3.514,0,0,1,1.8-.33,2.53,2.53,0,0,1,1.579.7.372.372,0,0,0,.257.147h0a.4.4,0,0,0,.257-.073c.184-.11.367-.22.514-.294.11-.073.33-.184.514-.294.257-.147.257-.33.22-.441a2.509,2.509,0,0,1,.257-1.726,3.154,3.154,0,0,1,1.212-1.359,2.55,2.55,0,0,1,.477-.184.355.355,0,0,0,.257-.33C59.866,42.444,59.866,42,59.9,41.6Zm-4.626,2.717a2.464,2.464,0,0,1-1.359.294,2.369,2.369,0,0,1-1.946-1.175,2.416,2.416,0,0,1-.257-1.946,2.365,2.365,0,0,1,1.212-1.505,2.464,2.464,0,0,1,1.359-.294,1.473,1.473,0,0,1,.551.11,2.421,2.421,0,0,1,1.505,1.248A2.536,2.536,0,0,1,55.276,44.316Z" transform="translate(-48.3 -36.725)" fill="#ffd00d"/>
              </g>
            </g>
          </g>
          <g id="Group_718" data-name="Group 718">
            <path id="Path_999" data-name="Path 999" d="M32.985,45.767a.919.919,0,0,1-.661-.294L25.9,39.085a1.8,1.8,0,0,1,0-2.534l6.426-6.426a.961.961,0,0,1,1.359,1.359L27.33,37.8l6.352,6.352a.938.938,0,0,1-.7,1.616Z" transform="translate(-25.375 -29.813)" fill="blue"/>
            <path id="Path_1000" data-name="Path 1000" d="M80.323,45.7a.919.919,0,0,0,.661-.294l6.426-6.389a1.8,1.8,0,0,0,0-2.534l-6.426-6.462a.961.961,0,0,0-1.359,1.359l6.352,6.352-6.352,6.352a.938.938,0,0,0,.7,1.616Z" transform="translate(-59.531 -29.75)" fill="blue"/>
          </g>
        </g>
      </g>
    </g>
  </g>
</svg>
