<svg xmlns="http://www.w3.org/2000/svg" width="36.234" height="45.996" viewBox="0 0 36.234 45.996">
  <g id="Group_447" data-name="Group 447" transform="translate(-956 167.996)">
    <path id="Path_706" data-name="Path 706" d="M3289.895-2735.542l10.112-3.33,10.058,3.33.492,3.854-.492,12.024-2.952,4.985-5.26,2.937h-3.481l-5.05-2.591-4.123-6Z" transform="translate(-2326.106 2580.487)" fill="#ffd00d"/>
    <g id="noun_power_security_1759516" data-name="noun_power security_1759516" transform="translate(945.001 -168.496)">
      <g id="Group_436" data-name="Group 436" transform="translate(10.999 0.5)">
        <path id="Path_714" data-name="Path 714" d="M29.116,46.5a17.3,17.3,0,0,1-5.867-.986,9.4,9.4,0,0,1-1.22-.469c-7.463-3.9-11.076-9.95-11.03-18.586V6.367L28.506.547A2.676,2.676,0,0,1,29.116.5a2.479,2.479,0,0,1,.61.047L47.233,6.414V26.5c0,8.636-3.614,14.69-11.076,18.492a5.474,5.474,0,0,1-1.22.469A16.852,16.852,0,0,1,29.116,46.5ZM14.379,9.371V26.5c0,9.668,5.257,13.47,9.2,15.488a2.714,2.714,0,0,0,.657.235l.141.047a14.355,14.355,0,0,0,4.74.8,14.15,14.15,0,0,0,4.74-.8L34,42.225a3.678,3.678,0,0,0,.657-.235C42.915,37.766,43.9,31.1,43.9,26.5V9.371L29.163,4.489Z" transform="translate(-10.999 -0.5)" fill="blue"/>
      </g>
      <path id="Path_715" data-name="Path 715" d="M35.325,14.9,22.7,19.077V33.721c0,8.26,4.506,11.546,7.885,13.282.188.094.375.141.563.235l.094.047a11.477,11.477,0,0,0,4.083.7,11.664,11.664,0,0,0,4.083-.7l.094-.047A2.871,2.871,0,0,0,40.066,47c7.087-3.614,7.885-9.293,7.885-13.282V19.077ZM32.744,41.84l1.267-9.387H29.318L37.86,21l-1.22,8.683h4.74Z" transform="translate(-6.209 -7.641)" fill="blue"/>
    </g>
  </g>
</svg>
