<svg height="71" viewBox="0 0 71 71" width="71" xmlns="http://www.w3.org/2000/svg" xmlns:xlink="http://www.w3.org/1999/xlink"><filter id="a" filterUnits="userSpaceOnUse" height="71" width="71" x="0" y="0"><feOffset dy="3"/><feGaussianBlur result="blur" stdDeviation="3"/><feFlood flood-opacity=".161"/><feComposite in2="blur" operator="in"/><feComposite in="SourceGraphic"/></filter><g filter="url(#a)"><circle cx="26.5" cy="26.5" fill="#fff" r="26.5" transform="translate(9 6)"/></g><path d="m3.191 4.191v-3.191h2.127v3.191h3.19v2.127h-3.19v3.19h-2.127v-3.19h-3.191v-2.127zm3.191 6.381v-3.191h3.19v-3.19h7.445l1.946 2.127h3.371a2.133 2.133 0 0 1 2.127 2.127v12.762a2.133 2.133 0 0 1 -2.127 2.127h-17.016a2.133 2.133 0 0 1 -2.127-2.127v-10.635zm7.445 9.572a5.318 5.318 0 1 0 -5.318-5.318 5.32 5.32 0 0 0 5.317 5.318zm-3.4-5.318a3.4 3.4 0 1 0 3.4-3.4 3.4 3.4 0 0 0 -3.4 3.4z" fill="#00f" transform="translate(23.949 19.949)"/></svg>