<svg xmlns="http://www.w3.org/2000/svg" width="42.496" height="41.5" viewBox="0 0 42.496 41.5">
  <g id="Group_724" data-name="Group 724" transform="translate(-4872 2579)">
    <path id="Path_1001" data-name="Path 1001" d="M0,0H24.568l2.19,8.881-9.527,9.641L12.248,29.88H0Z" transform="translate(4874.656 -2575.016)" fill="#ffd00d"/>
    <g id="noun_Writing_1976688" transform="translate(4872 -2579)">
      <g id="Group_723" data-name="Group 723" transform="translate(0 0)">
        <path id="Path_1002" data-name="Path 1002" d="M26.431,31.912h0l-.2.2C21.518,33.97,21.65,33.9,21.518,33.9c-1.527.6-1.527.6-1.926.6a1.948,1.948,0,0,1-1.66-.863,1.406,1.406,0,0,1-.2-.465H6.246a.664.664,0,0,1,0-1.328H17.8v-.066c2.457-6.308,2.191-5.976,2.656-6.308h0c.8-.863,3.254-3.386,11.421-11.487V3.626A1.927,1.927,0,0,0,29.95,1.7H2.926A1.927,1.927,0,0,0,1,3.626V41.274A1.927,1.927,0,0,0,2.926,43.2H29.95a1.927,1.927,0,0,0,1.926-1.926V26.534C28.423,29.986,27.1,31.381,26.431,31.912ZM6.246,6.746H16.471a.664.664,0,0,1,0,1.328H6.246a.665.665,0,0,1-.664-.664A.714.714,0,0,1,6.246,6.746Zm0,5.046H26.63a.664.664,0,0,1,0,1.328H6.246a.664.664,0,1,1,0-1.328Zm0,5.046H26.63a.664.664,0,0,1,0,1.328H6.246a.664.664,0,0,1,0-1.328Zm0,4.98H21.783a.665.665,0,0,1,.664.664.627.627,0,0,1-.664.664H6.246a.664.664,0,1,1,0-1.328Zm0,5.046H17.8a.664.664,0,1,1,0,1.328H6.246a.664.664,0,1,1,0-1.328Z" transform="translate(-1 -1.7)" fill="blue"/>
        <path id="Path_1003" data-name="Path 1003" d="M28.768,46.109c.2,0,0,0,5.511-2.058L30.162,40c-.266.664-.8,2.058-1.992,5.246A.62.62,0,0,0,28.768,46.109Z" transform="translate(-10.109 -14.569)" fill="blue"/>
        <path id="Path_1004" data-name="Path 1004" d="M54.046,15.753a1.952,1.952,0,0,0-.6-1.461L52.054,12.9a2.166,2.166,0,0,0-2.988,0C49,12.964,35.122,26.775,32.4,29.564l4.382,4.382L50.66,20.069l.465.465a.763.763,0,0,1,0,1.129l-4.05,4.05a.657.657,0,1,0,.93.93l4.05-4.05a2.166,2.166,0,0,0,0-2.988l-.465-.465,1.859-1.859A2.1,2.1,0,0,0,54.046,15.753Z" transform="translate(-11.55 -5.262)" fill="blue"/>
      </g>
    </g>
  </g>
</svg>
